<svg width="112" height="55" viewBox="0 0 112 55" fill="none" xmlns="http://www.w3.org/2000/svg">
<path d="M12.3048 18.4037C12.2739 19.5074 12.3409 20.4385 12.149 21.362C11.4703 24.6397 9.06705 27.0017 5.84987 27.522C5.00887 27.6572 4.18461 27.5606 3.36422 27.352C3.1105 27.2876 2.9405 27.1833 2.89156 26.9051C2.47042 24.5688 2.04283 22.2326 1.61525 19.8886C1.94109 19.792 2.14715 19.9916 2.38284 20.0586C3.16846 20.2827 3.88582 20.199 4.44348 19.5615C5.00887 18.915 5.10675 18.168 4.69076 17.412C4.34045 16.7745 3.94635 16.1588 3.53938 15.5548C1.83806 13.0228 0.757507 10.2821 0.824478 7.18732C0.87213 5.01205 1.53282 3.03126 3.13369 1.49222C4.83629 -0.143419 6.87247 -0.228421 9.0194 0.42197C9.28728 0.503107 9.38387 0.685989 9.43024 0.935842C9.8179 3.02224 10.203 5.10864 10.6035 7.19247C10.6872 7.63036 10.61 7.73468 10.1321 7.64195C8.91379 7.40497 8.04961 8.26529 8.19643 9.50812C8.2737 10.1637 8.54803 10.7432 8.91121 11.2816C9.89131 12.7369 10.9809 14.1252 11.6609 15.7905C11.6416 14.8375 11.6235 13.9037 11.7485 12.97C12.1348 10.0812 14.0525 7.64452 16.5626 7.02375C19.2659 6.35405 21.7014 7.03406 23.8895 8.68901C25.4543 9.87259 26.6765 11.3447 27.5162 13.2585C27.7056 12.8811 27.6051 12.5862 27.6231 12.3132C27.882 8.36575 30.6793 6.19306 34.5521 7.06239C38.3964 7.924 40.6954 10.4457 41.7463 14.1755C41.9614 14.9379 42.1301 15.7145 42.2949 16.4898C42.3696 16.8401 42.5461 16.9316 42.8835 16.8917C43.879 16.7745 44.3749 16.2786 44.3259 15.2805C44.2873 14.4923 44.1714 13.7015 44.0272 12.9236C43.4785 9.9782 45.4928 8.53704 47.8007 8.40567C47.8226 8.40438 47.8432 8.40438 47.8651 8.40438C50.5633 8.37348 53.2408 8.63106 55.9158 8.95046C56.2107 8.98523 56.3665 9.12175 56.4425 9.4141C57.5153 13.4761 58.5907 17.5369 59.6816 21.5938C59.7911 21.9995 59.6558 22.0574 59.2991 22.0549C57.6686 22.042 56.0368 22.0278 54.4076 22.0626C53.9195 22.0729 53.8538 21.796 53.7676 21.4521C53.2073 19.2279 52.6484 17.0037 52.0714 14.7847C52.0018 14.5193 52.0894 14.0634 51.5691 14.1278C51.09 14.1871 50.692 14.3622 50.6186 14.9173C50.5298 15.587 50.692 16.2413 50.7294 16.9032C50.826 18.6381 50.4254 20.181 49.0075 21.3311C48.4472 21.7857 47.8084 22.0806 47.1207 22.2712C46.0182 22.5765 44.863 22.8443 43.758 22.6602C42.9891 22.5314 42.2473 22.4116 41.4745 22.4567C40.4893 22.5146 39.5015 22.5404 38.5227 22.6512C37.983 22.7117 37.7705 22.5623 37.6546 22.0278C37.1124 19.5138 36.5328 17.0076 35.9572 14.5013C35.876 14.1484 35.7794 13.7891 35.6223 13.4658C35.348 12.9017 34.6937 12.6145 34.1657 12.8129C33.514 13.0576 33.5964 13.6036 33.7085 14.1162C34.2983 16.7964 34.8856 19.4765 35.5128 22.1463C35.6403 22.6898 35.5309 22.8701 34.9796 22.9113C33.4406 23.0259 31.9016 23.1663 30.3664 23.3299C29.8963 23.3801 29.7379 23.2178 29.6477 22.7722C29.2536 20.8404 28.8029 18.9201 28.4178 16.9857C28.3147 16.4679 28.1048 16.334 27.6 16.3739C25.077 16.5697 22.5501 16.7178 20.0284 16.92C19.4926 16.9625 19.2209 16.7925 19.1062 16.2928C19.0586 16.0841 18.9839 15.8819 18.935 15.6733C18.5615 14.0583 18.6787 13.8947 20.2782 13.784C20.5989 13.7621 20.9196 13.7041 21.2403 13.708C21.7052 13.7118 21.807 13.5727 21.5713 13.1477C21.1051 12.3067 20.2641 11.8057 19.4166 11.9139C18.5718 12.0221 17.9639 12.5579 17.7823 13.5805C17.4539 15.4312 17.8544 17.1364 19.1603 18.5299C20.1018 19.5331 21.2545 19.4816 22.1637 18.4526C22.411 18.1731 22.5308 18.2182 22.7626 18.4359C23.9333 19.5396 25.1053 20.642 26.3018 21.7161C26.7435 22.1128 26.4499 22.3253 26.1794 22.5803C23.5933 25.0132 19.5931 25.424 16.5201 23.5643C14.7596 22.4979 13.4781 21.0078 12.6474 19.1287C12.5573 18.9381 12.4671 18.7514 12.3048 18.4037Z" fill="#F76408"/>
<path d="M66.8965 33.7297C66.8218 32.7341 66.8063 31.7785 67.2661 30.8783C68.1406 29.1602 69.6513 28.3051 71.4608 28.0153C75.2691 27.4048 78.6847 28.3785 81.6906 30.7894C81.8902 30.9491 82.0654 31.1423 82.2418 31.329C82.4016 31.499 82.5484 31.6832 82.6978 31.8571C82.9309 31.785 82.8523 31.6047 82.851 31.4772C82.842 30.1777 83.5104 29.3379 84.6554 28.8434C85.8931 28.3102 87.2003 28.3746 88.5152 28.3797C89.7271 28.3849 90.393 28.8653 90.6609 30.054C90.818 30.7559 91.158 31.4166 91.4465 32.1803C90.9996 32.125 90.6312 32.0554 90.2616 32.04C89.2571 31.9988 88.9067 32.4637 89.257 33.4026C89.713 34.6274 90.1882 35.847 90.6866 37.0551C90.8759 37.5148 90.7665 37.6307 90.2887 37.6514C88.7458 37.7158 87.2029 37.7904 85.6651 37.9244C85.1177 37.972 84.9117 37.7801 84.7558 37.2985C84.4467 36.3403 84.041 35.413 83.7487 34.4509C83.5838 33.9113 83.3185 33.7902 82.7802 33.8186C80.2533 33.9525 77.7252 34.0427 75.197 34.1431C74.4449 34.1727 73.7675 33.0922 74.0856 32.3954C74.1847 32.1778 74.3625 32.2293 74.5222 32.2216C75.1867 32.1919 75.8513 32.1739 76.5145 32.1456C76.6343 32.1404 76.794 32.1752 76.8455 32.0245C76.8971 31.8777 76.7554 31.7978 76.6717 31.709C75.9749 30.9607 74.3277 30.8062 73.506 31.4102C72.9818 31.7966 72.844 32.331 72.9187 32.9479C73.175 35.0459 75.5525 36.2038 77.344 35.0846C77.6067 34.921 77.7934 34.921 78.0433 35.0627C79.1818 35.7066 80.3216 36.3493 81.4717 36.9713C81.9096 37.2083 81.7331 37.3371 81.4382 37.5135C79.9661 38.3945 78.3434 38.7641 76.6601 38.8865C74.5969 39.0371 72.5916 38.7821 70.7048 37.8703C69.4852 37.2804 68.4433 36.4781 67.704 35.3203C67.6383 35.2172 67.5907 35.0794 67.4194 35.0974C67.3035 35.3177 67.4387 35.5096 67.4967 35.7066C67.7272 36.4884 67.9719 37.265 68.2024 38.0467C68.9868 40.6972 68.2964 42.8635 66.0697 44.521C64.009 46.0536 61.6328 46.5933 59.1021 46.5752C58.784 46.5726 58.6526 46.4271 58.5728 46.1386C58.283 45.0851 57.9868 44.0316 57.6674 42.9871C57.5438 42.5827 57.603 42.4501 58.0589 42.4977C58.9579 42.5892 59.8555 42.5763 60.7287 42.2711C62.1493 41.7739 62.8113 40.7178 62.4404 39.2651C62.0012 37.5419 61.495 35.8341 60.9464 34.1431C60.4351 32.5693 58.8909 32.4804 57.8915 32.8874C56.704 33.3704 56.5546 34.751 57.5837 35.5212C58.3538 36.0969 59.2142 36.1419 60.0912 35.8367C60.4596 35.7079 60.6115 35.7478 60.7171 36.1509C60.9992 37.2289 61.325 38.2953 61.6444 39.363C61.7204 39.618 61.7397 39.8034 61.4435 39.9348C57.9108 41.5022 53.6569 40.486 51.7263 37.256C49.466 33.4747 51.573 29.1615 56.0356 28.3656C58.2238 27.9753 60.3527 28.2265 62.4107 29.052C64.3993 29.8492 65.8198 31.2376 66.6608 33.212C66.7368 33.3884 66.8179 33.5584 66.8965 33.7297ZM67.3898 34.7986C67.3498 34.7665 67.3112 34.733 67.2674 34.7059C67.2635 34.7033 67.2069 34.7665 67.212 34.7742C67.2429 34.8218 67.2854 34.8618 67.3241 34.903C67.3421 34.8734 67.3601 34.845 67.3898 34.7986Z" fill="#F76408"/>
<path d="M72.7872 16.2541C72.8516 15.663 72.7807 15.0538 73.0422 14.4884C73.7235 13.0202 75.0088 12.5089 76.486 12.402C79.1211 12.2127 81.514 13.0704 83.8168 14.2386C86.5188 15.6089 88.4648 17.6373 89.3612 20.5931C89.6213 21.4534 89.9781 22.2841 90.2705 23.1354C90.9646 25.1561 90.3078 26.6359 88.3103 27.4267C86.3102 28.2187 84.2431 28.0668 82.158 27.8208C81.0529 27.6907 80.4244 27.2489 80.2287 26.1195C80.1102 25.4356 79.8063 24.7826 79.5487 24.0009C80.1604 24.1554 80.6614 24.2958 81.1688 24.4065C81.8437 24.5559 82.5263 24.6062 83.214 24.5006C84.2804 24.3357 84.775 23.6493 84.4582 22.6164C84.0061 21.1417 83.5103 19.6787 82.9616 18.2375C82.5199 17.0797 81.1135 16.3224 79.8809 16.4692C78.9627 16.5787 78.6227 17.2948 79.1855 18.0301C79.8848 18.9433 80.8739 19.3438 81.9983 19.3271C82.4877 19.3193 82.6783 19.4996 82.8084 19.9259C83.0376 20.6845 83.3119 21.4289 83.5631 22.1811C83.7807 22.8327 83.7498 22.8945 83.035 22.9216C80.0509 23.0349 77.4223 22.1218 75.1698 20.1539C74.4447 19.5202 73.8561 18.7707 73.3977 17.9104C73.3539 17.9361 73.3088 17.9632 73.265 17.9889C73.6694 19.309 74.0751 20.6278 74.4782 21.9479C74.7152 22.7233 74.7139 22.7168 73.8935 22.6627C72.3957 22.5636 70.8991 22.4567 69.4 22.3884C68.9557 22.3678 68.7741 22.1926 68.6569 21.7767C68.0863 19.7559 67.4759 17.7468 66.8989 15.7274C66.7096 15.0641 66.3245 14.6417 65.6483 14.491C64.8782 14.3197 64.5214 14.6661 64.7262 15.4299C65.0276 16.5478 65.3611 17.6554 65.6793 18.7681C65.9562 19.7366 66.2112 20.7116 66.5138 21.6723C66.649 22.0999 66.5782 22.2596 66.1081 22.239C64.5021 22.1707 62.8948 22.1089 61.2875 22.0793C60.878 22.0716 60.7414 21.9067 60.6448 21.541C60.0588 19.3245 59.4291 17.1183 58.8547 14.8993C58.0549 11.8083 60.0176 9.43984 63.2039 9.74121C67.49 10.1456 70.8309 12.035 72.6713 16.1137C72.6945 16.1653 72.7576 16.2 72.8014 16.2425C72.8129 16.3198 72.8245 16.3958 72.8361 16.4731C72.8542 16.4628 72.8838 16.4563 72.8864 16.4434C72.9005 16.3584 72.8941 16.2799 72.7872 16.2541Z" fill="#F76408"/>
<path d="M42.5099 29.495C46.8205 29.5014 49.7041 31.6381 50.9173 35.7761C51.4235 37.5019 51.918 39.2367 52.2966 40.9934C53.063 44.5377 51.4041 47.7394 47.9873 49.4639C46.4908 50.2186 44.9002 50.5999 43.2208 50.6372C42.8113 50.6462 42.6142 50.538 42.5189 50.1079C42.2446 48.8741 41.9381 47.6467 41.6006 46.4296C41.4731 45.9699 41.6084 45.9273 42.0115 45.9776C42.8731 46.0845 43.7231 46.0072 44.5422 45.6917C45.9705 45.1404 46.7458 43.9401 46.465 42.4449C46.0619 40.2979 45.4824 38.1883 44.8667 36.0916C44.6349 35.3009 44.1043 34.7471 43.226 34.6608C42.4069 34.5809 41.6908 34.787 41.1988 35.5044C40.4364 36.6145 41.0623 38.1072 42.4184 38.4021C43.0006 38.5284 43.5814 38.4884 44.1069 38.1974C44.4623 38.0003 44.5757 38.1124 44.6607 38.464C44.9672 39.7338 45.2853 41.0024 45.6215 42.2646C45.718 42.629 45.5867 42.7965 45.2776 42.9678C41.0121 45.3349 35.7291 42.8106 34.9229 38.008C34.1141 33.1848 37.4098 29.4873 42.5099 29.495Z" fill="#F76408"/>
<path d="M18.5253 50.8278C18.6116 51.0983 18.4043 51.155 18.2227 51.2168C16.3552 51.8504 14.4839 52.4712 12.6216 53.1203C12.1772 53.2748 12.1695 53.007 12.1129 52.7211C11.6093 50.1762 11.1018 47.6326 10.5957 45.0889C10.0483 42.3354 9.48553 39.5845 8.97295 36.8245C8.86605 36.2514 8.65741 36.2089 8.16672 36.3467C6.94836 36.6867 5.71327 36.9636 4.49362 37.2959C4.11369 37.4002 3.95657 37.3396 3.88316 36.9301C3.50323 34.7986 3.1117 32.6697 2.68927 30.546C2.59783 30.09 2.8142 30.0553 3.1439 29.9922C8.15642 29.0391 13.1689 28.0796 18.1789 27.115C18.5086 27.0519 18.694 27.0918 18.7687 27.4679C19.1564 29.401 19.5569 31.3316 19.9678 33.2609C20.0528 33.6588 19.8428 33.7284 19.5299 33.7928C18.269 34.0478 17.0146 34.3311 15.7537 34.581C15.33 34.6647 15.2218 34.8154 15.3172 35.27C16.3655 40.2619 17.3868 45.2602 18.4158 50.256C18.4545 50.444 18.488 50.6347 18.5253 50.8278Z" fill="#F76408"/>
<path d="M20.7266 38.6082C20.8116 35.7156 21.7801 33.4154 24.522 32.2112C25.667 31.7077 26.8776 31.5969 28.1539 31.6729C29.1585 31.7321 30.1862 31.4153 31.2036 31.2621C31.6699 31.1925 32.1425 31.1461 32.5984 31.0341C33.0415 30.9246 33.1922 31.0689 33.2913 31.5029C34.2096 35.5134 35.1511 39.5175 36.0861 43.5242C36.2368 44.1707 36.3643 44.8249 36.5394 45.465C36.6257 45.7793 36.5124 45.8952 36.2393 45.9673C34.5393 46.4155 32.8367 46.8534 31.1444 47.3261C30.6898 47.4536 30.7001 47.1664 30.6395 46.8985C30.0149 44.1166 29.3929 41.336 28.7644 38.5554C28.7051 38.2953 28.7566 37.9166 28.4604 37.8316C28.0985 37.7286 27.7405 37.9128 27.4713 38.1768C26.9626 38.6778 26.8905 39.323 27.0257 39.9708C27.4752 42.1319 27.9517 44.2879 28.4295 46.4425C28.7747 47.9945 28.7824 47.9893 27.2395 48.4439C25.9851 48.8136 24.7319 49.1845 23.4827 49.5696C23.1002 49.6881 22.8761 49.7009 22.7743 49.1987C22.1523 46.1322 21.4877 43.0747 20.8579 40.0108C20.7588 39.5317 20.7639 39.032 20.7266 38.6082Z" fill="#F76408"/>
<path d="M104.282 54.3849C99.9749 54.3862 96.5503 50.9732 96.5452 46.6717C96.5387 42.3894 99.989 38.9236 104.265 38.9159C108.536 38.9082 111.997 42.3713 112 46.6536C112.001 50.9617 108.586 54.3836 104.282 54.3849ZM110.645 46.718C110.65 43.1415 107.799 40.2631 104.262 40.2734C100.772 40.2837 97.9052 43.1377 97.8988 46.6098C97.891 50.176 100.746 53.0584 104.283 53.0545C107.764 53.0506 110.64 50.1863 110.645 46.718Z" fill="#F76408"/>
<path d="M29.3257 30.1094C27.6283 30.0939 26.2927 28.7159 26.3107 27.0004C26.3262 25.4729 27.5407 24.3215 29.1081 24.3499C30.8596 24.3821 32.3729 25.9108 32.3394 27.6121C32.3098 29.0829 31.0515 30.1248 29.3257 30.1094Z" fill="#F76408"/>
<path d="M53.5306 7.52211C51.6683 7.50279 50.0004 6.31663 49.5741 4.70933C49.2496 3.48454 49.8806 2.56755 51.1338 2.44391C52.7333 2.28808 54.8764 3.70219 55.3697 5.24124C55.8153 6.63346 55.0863 7.53756 53.5306 7.52211Z" fill="#F76408"/>
<path d="M67.3897 34.7987C67.3601 34.8463 67.3421 34.8747 67.324 34.903C67.2854 34.8605 67.2429 34.8206 67.212 34.7742C67.2068 34.7665 67.2635 34.7047 67.2674 34.706C67.3112 34.7317 67.3498 34.7665 67.3897 34.7987Z" fill="#60605F"/>
<path d="M72.7874 16.254C72.8942 16.2785 72.9007 16.3571 72.8852 16.4433C72.8827 16.4562 72.8517 16.464 72.835 16.473C72.8234 16.397 72.8118 16.3197 72.8002 16.2424C72.8002 16.2437 72.7874 16.254 72.7874 16.254Z" fill="#60605F"/>
<path d="M103.666 50.9913C103.115 51.0634 102.576 50.5547 101.95 50.8328C101.814 50.8934 101.771 50.6873 101.737 50.5688C101.56 49.9725 101.385 49.3762 101.218 48.7774C101.187 48.6679 101.09 48.5172 101.285 48.4618C101.457 48.4129 101.492 48.5687 101.545 48.6808C101.756 49.129 101.996 49.5552 102.348 49.9133C102.876 50.4503 103.475 50.7903 104.247 50.5508C104.779 50.3859 105.009 49.9442 105.07 49.4226C105.16 48.6434 104.774 48.1128 104.132 47.7329C103.58 47.4045 103.009 47.1018 102.475 46.7476C101.941 46.3947 101.552 45.9247 101.469 45.2485C101.278 43.7069 102.476 42.6714 103.963 43.1106C104.311 43.2136 104.642 43.3862 105.011 43.1647C105.227 43.0346 105.262 43.2381 105.298 43.372C105.441 43.8885 105.576 44.4075 105.707 44.9265C105.732 45.0244 105.768 45.1493 105.63 45.1957C105.508 45.2369 105.432 45.1532 105.38 45.0515C105.321 44.9368 105.267 44.8209 105.208 44.7063C105.049 44.3998 104.859 44.1139 104.605 43.8782C103.929 43.251 103.035 43.1531 102.591 43.6528C102.052 44.2568 102.186 45.4314 102.909 45.9414C103.555 46.3973 104.266 46.7605 104.933 47.1881C105.46 47.5255 105.818 47.9969 105.889 48.6421C106.037 49.9931 105.083 51.017 103.666 50.9913Z" fill="#F76408"/>
</svg>
