<svg width="34" height="34" viewBox="0 0 34 34" fill="none" xmlns="http://www.w3.org/2000/svg">
<path d="M21.7857 30.835C21.4008 30.9416 21.016 31.0482 20.6312 31.1548C19.8407 31.2666 19.0542 31.3758 18.2507 31.3992C17.1547 31.4304 16.1186 31.0833 15.0447 30.9897C14.3751 30.636 13.6094 30.4943 12.9854 30.0432C12.5589 29.8144 12.0909 29.6402 11.7152 29.3477C10.7063 28.5624 9.70523 27.7616 8.81337 26.8372C7.74989 25.5995 6.94644 24.1863 6.09488 22.8056C5.97397 22.5833 5.85176 22.361 5.73086 22.1387C5.62555 21.785 5.66455 21.4964 6.07148 21.3716C6.70852 21.2871 7.04005 21.5159 7.14925 22.2011C7.23116 22.712 7.46128 23.219 7.8435 23.6156C8.24133 24.3722 8.77827 25.0288 9.3321 25.6723C9.39321 25.8647 9.54662 25.9752 9.70263 26.0818C11.3797 27.9735 13.4612 29.2151 15.8989 29.8417C17.9166 30.3604 19.9291 30.3032 21.8117 29.3542C24.954 27.7707 26.9366 25.255 27.6374 21.7746C27.7973 20.9569 28.069 20.1547 28.0248 19.3045C28.108 18.293 28.0586 17.288 27.8558 16.2922C27.6452 15.6109 27.5893 14.8829 27.259 14.2367C27.3448 14.0404 27.1537 13.9507 27.0952 13.809C27.0042 13.5074 27.0575 13.1498 26.7572 12.9288C26.7026 12.8014 26.648 12.674 26.5947 12.5479C26.4855 12.3269 26.3763 12.1059 26.2671 11.8849C26.2307 11.604 25.9823 11.4584 25.8549 11.2361C25.0684 9.77612 24.0153 8.53843 22.7048 7.52696C19.7562 5.25311 16.4982 4.27544 12.8059 5.26351C10.1226 5.98116 8.16332 7.66607 6.87103 10.0634C5.37203 12.8456 5.11071 15.841 5.72826 18.9209C5.81406 19.3487 5.90767 19.7686 5.66195 20.1742C5.39803 20.2002 5.35903 20.0091 5.29403 19.818C4.8832 18.605 4.71029 17.3504 4.65958 16.0815C4.57638 14.0118 4.98591 12.0214 5.69445 10.0855C5.73086 10.0335 5.77766 9.98543 5.80366 9.92953C7.95271 5.23881 12.62 2.81284 17.7203 3.6891C19.7497 4.03752 21.5204 4.93458 23.2002 6.06436C23.9048 6.70661 24.6095 7.34755 25.3141 7.98979C25.396 8.16141 25.5156 8.29922 25.6768 8.40062C26.7702 9.83592 27.7063 11.3583 28.3095 13.0718C29.4861 16.4105 29.6486 19.7868 28.693 23.206C28.2107 24.5269 27.5685 25.7685 26.8274 26.9607C26.479 27.3923 26.1306 27.824 25.7821 28.2543C24.6368 29.4023 23.3003 30.2577 21.7857 30.835Z" fill="#F8F9FE"/>
<path d="M10.9975 19.1731C11.5942 18.8311 12.204 19.1029 12.7708 19.216C15.3762 19.7373 17.9699 20.3249 20.5649 20.8957C20.7638 20.9399 21.042 20.9776 20.9562 21.2909C20.8795 21.5678 20.652 21.6068 20.3828 21.573C18.603 21.3442 16.8401 21.014 15.0772 20.6851C14.4882 20.5759 13.8993 20.468 13.1686 20.3328C14.1775 21.5756 15.1019 22.7132 16.0262 23.8521C16.3812 24.2889 16.753 24.7128 17.0858 25.1652C17.3601 25.5383 17.5356 25.6059 17.8035 25.1405C18.343 24.2031 18.9228 23.2892 19.5092 22.3791C19.8771 21.8071 20.3477 21.7928 20.7235 22.3037C20.3243 23.5102 19.5326 24.5125 18.9852 25.6423C18.7733 25.9582 18.5484 26.2677 18.3547 26.594C18.1038 27.0152 17.7632 27.2453 17.2613 27.1998C17.0104 27.0334 16.7582 26.8683 16.5073 26.7019C16.2824 26.4367 16.0561 26.1715 15.8299 25.9062C15.0759 25.1808 14.6013 24.233 13.8837 23.4777C13.6055 23.1851 13.3559 22.864 13.0932 22.5559C12.451 21.6107 11.6319 20.7982 11.0469 19.8114C11.0287 19.5969 11.0131 19.385 10.9975 19.1731Z" fill="#F8F9FE"/>
<path d="M12.6982 11.7806C13.5926 12.718 14.0802 13.9076 14.6808 15.0243C14.7965 15.2402 14.777 15.5483 14.5365 15.6497C14.2674 15.7615 14.2024 15.4352 14.101 15.2701C13.6953 14.6057 13.2988 13.9362 12.7931 13.3407C12.3315 12.7986 12.1521 12.8051 11.6672 13.3485C11.1199 13.9622 10.8572 14.7136 10.6076 15.4781C10.475 15.885 10.3255 16.3426 9.71706 16.1658C9.62735 16.0423 9.53764 15.9201 9.44794 15.7966C9.44794 15.4937 9.44794 15.1907 9.44924 14.8865C9.76126 13.7463 10.2085 12.6959 11.246 11.9977C11.7075 11.6896 12.1664 11.5427 12.6982 11.7806Z" fill="#F8F9FE"/>
<path d="M23.3407 14.6282C23.2484 14.7582 23.2627 15.0026 23.0209 14.9727C22.8428 14.9519 22.8051 14.7725 22.7531 14.636C22.497 13.9665 22.1433 13.3463 21.7572 12.7483C21.2853 12.0163 20.5988 12.054 20.2153 12.8237C19.9358 13.384 19.7408 13.9795 19.5432 14.5749C19.434 14.9051 19.2312 15.4252 18.8853 15.3186C18.494 15.1976 18.1729 14.7582 18.2821 14.2213C18.5161 13.072 18.9633 12.0384 19.9046 11.2792C20.0164 11.235 20.1282 11.1921 20.2387 11.1479C20.3245 11.1323 20.4116 11.1167 20.4974 11.1011C21.1917 11.0699 21.8248 11.196 22.2838 11.7823C22.4996 12.3257 22.7596 12.8471 23.0859 13.3346C23.2237 13.7558 23.4382 14.1615 23.3407 14.6282Z" fill="#F8F9FE"/>
<path d="M16.9884 0.139759C7.37428 0.174861 0.239389 7.68547 0.273191 16.8979C0.308293 26.4055 7.7747 33.4545 17.0027 33.6157C26.5064 33.4324 33.7687 26.0765 33.7219 16.8212C33.6751 7.24605 26.1749 0.107257 16.9884 0.139759ZM18.2508 31.3991C17.1548 31.4303 16.1187 31.0832 15.0448 30.9896C14.3753 30.6359 13.6095 30.4942 12.9842 30.0431C12.5577 29.8143 12.0897 29.6401 11.714 29.3476C10.7051 28.5623 9.70404 27.7614 8.81218 26.8371C7.7487 25.5994 6.94525 24.1862 6.09369 22.8055C5.97278 22.5832 5.85057 22.3609 5.72837 22.1386C5.62306 21.7849 5.66206 21.4963 6.07029 21.3715C6.70733 21.287 7.03886 21.5158 7.14806 22.201C7.22997 22.7119 7.46008 23.2189 7.84231 23.6155C8.24014 24.3721 8.77707 25.0287 9.33091 25.6722C9.39202 25.8646 9.54543 25.9751 9.70144 26.0817C11.3786 27.9734 13.46 29.2149 15.8977 29.8416C17.9154 30.3603 19.9279 30.3031 21.8105 29.3541C24.9528 27.7706 26.9354 25.2549 27.6362 21.7745C27.7961 20.9568 28.0678 20.1546 28.0236 19.3044C28.1068 18.2929 28.0574 17.2879 27.8546 16.2921C27.644 15.6108 27.5881 14.8828 27.2578 14.2366C27.3436 14.0403 27.1525 13.9506 27.094 13.8089C27.003 13.5073 27.0563 13.1497 26.756 12.9287C26.7014 12.8013 26.6468 12.6739 26.5935 12.5478C26.4843 12.3268 26.3751 12.1058 26.2659 11.8848C26.2308 11.6039 25.9812 11.4583 25.8537 11.236C25.0672 9.77602 24.0141 8.53833 22.7036 7.52686C19.7563 5.25301 16.4983 4.27534 12.8061 5.26341C10.1227 5.98106 8.16343 7.66597 6.87114 10.0633C5.37214 12.8455 5.11082 15.8409 5.72837 18.9208C5.81417 19.3486 5.90778 19.7685 5.66076 20.1741C5.39684 20.2001 5.35784 20.009 5.29284 19.8179C4.88201 18.6049 4.7091 17.3503 4.65839 16.0814C4.57519 14.0117 4.98471 12.0213 5.69326 10.0854C5.72967 10.0334 5.77647 9.98663 5.80247 9.92943C7.95282 5.23871 12.6201 2.81274 17.7204 3.689C19.7498 4.03743 21.5205 4.93449 23.2003 6.06426C23.9049 6.70651 24.6096 7.34745 25.3142 7.9897C25.3961 8.16131 25.5157 8.29912 25.6769 8.40052C26.7703 9.83582 27.7064 11.3582 28.3096 13.0717C29.4862 16.4104 29.6487 19.7867 28.6931 23.2059C28.2108 24.5268 27.5686 25.7684 26.8275 26.9606C26.4791 27.3922 26.1307 27.8239 25.7822 28.2542C24.6356 29.4022 23.3004 30.2576 21.7845 30.8362C21.3996 30.9428 21.0148 31.0494 20.63 31.156C20.6209 31.2379 20.5988 31.3211 20.5585 31.3835C20.5988 31.3211 20.6222 31.2379 20.63 31.156C19.8408 31.2665 19.0543 31.3757 18.2508 31.3991ZM6.00268 20.8697C6.02349 20.9256 6.04299 20.9828 6.05599 21.0426C6.04169 20.9841 6.02349 20.9269 6.00268 20.8697ZM9.44792 15.7967C9.44792 15.4938 9.44792 15.1909 9.44922 14.8867C9.76124 13.7465 10.2085 12.696 11.2459 11.9979C11.7075 11.6884 12.1664 11.5415 12.6981 11.7795C13.5926 12.7168 14.0801 13.9064 14.6808 15.0232C14.7965 15.239 14.777 15.5471 14.5365 15.6485C14.2674 15.7603 14.2023 15.434 14.1009 15.2689C13.6953 14.6045 13.2988 13.935 12.7931 13.3396C12.3315 12.7974 12.1521 12.8039 11.6672 13.3474C11.1198 13.961 10.8572 14.7125 10.6076 15.4769C10.475 15.8838 10.3255 16.3415 9.71704 16.1647C9.62603 16.3155 9.54673 16.465 9.48952 16.6145C9.54673 16.465 9.62603 16.3142 9.71834 16.1647C9.62733 16.0424 9.53763 15.9202 9.44792 15.7967C9.26851 15.629 9.1775 15.4847 9.1775 15.3417C9.1788 15.486 9.26851 15.629 9.44792 15.7967ZM20.2413 11.1476C20.3271 11.132 20.4142 11.1164 20.5 11.1008C21.1942 11.0696 21.8274 11.1957 22.285 11.7821C22.5008 12.3255 22.7608 12.8468 23.0872 13.3344C23.2237 13.7556 23.4382 14.1612 23.3407 14.6279C23.2484 14.758 23.2627 15.0024 23.0209 14.9725C22.8427 14.9517 22.805 14.7723 22.753 14.6357C22.4969 13.9662 22.1433 13.3461 21.7572 12.748C21.2852 12.0161 20.5988 12.0538 20.2153 12.8234C19.9357 13.3838 19.7407 13.9792 19.5431 14.5746C19.4339 14.9049 19.2311 15.4249 18.8853 15.3183C18.4939 15.1974 18.1728 14.758 18.282 14.221C18.516 13.0717 18.9633 12.0382 19.9045 11.2789C20.0176 11.2347 20.1295 11.1918 20.2413 11.1476ZM24.906 19.3603C24.8969 19.4331 24.8644 19.4916 24.7994 19.5241C24.8644 19.4903 24.8956 19.4331 24.906 19.3603ZM18.9269 11.0007C18.9282 11.0007 18.9308 11.0007 18.9321 11.0007C18.9308 11.0007 18.9295 11.0007 18.9269 11.0007ZM17.4331 17.5037C17.3421 17.7898 17.3473 18.2552 17.0222 18.2903C16.7882 18.315 16.5243 17.9588 16.5165 17.6286C16.5074 17.2775 16.7726 17.2242 17.0794 17.2346C17.229 17.2645 17.5319 17.193 17.4331 17.5037ZM14.2882 9.38859C14.3766 9.42499 14.4572 9.4731 14.5183 9.5498C14.4572 9.4744 14.3766 9.42629 14.2882 9.38859ZM9.39592 17.1085V17.1098C9.39592 17.1098 9.39592 17.1098 9.39592 17.1085ZM9.40762 16.9135C9.41672 16.8537 9.43102 16.7952 9.44922 16.7354C9.43102 16.7952 9.41672 16.855 9.40762 16.9135ZM15.8288 25.9049C15.5921 26.1337 15.4023 26.057 15.2281 25.9361C15.193 25.9114 15.1592 25.8854 15.1254 25.8607C15.1592 25.8867 15.193 25.9127 15.2281 25.9361C15.4023 26.0557 15.5921 26.1337 15.8288 25.9049C15.0747 25.1795 14.6002 24.2317 13.8825 23.4764C13.6043 23.1838 13.3547 22.8627 13.0921 22.5546C12.4498 21.6094 11.6308 20.7969 11.0457 19.8101C11.0301 19.5982 11.0145 19.3863 10.9976 19.1731C11.5944 18.8311 12.2041 19.1029 12.7709 19.216C15.3763 19.7373 17.97 20.3249 20.565 20.8957C20.7639 20.9399 21.0421 20.9776 20.9563 21.2909C20.8796 21.5678 20.6521 21.6068 20.383 21.573C18.6031 21.3442 16.8402 21.014 15.0773 20.6851C14.4884 20.5759 13.8994 20.468 13.1688 20.3327C14.1776 21.5756 15.102 22.7132 16.0264 23.8521C16.3813 24.2889 16.7531 24.7127 17.0859 25.1652C17.3603 25.5383 17.5358 25.6059 17.8036 25.1405C18.3431 24.2031 18.923 23.2891 19.5093 22.3791C19.8772 21.807 20.3479 21.7927 20.7236 22.3037C20.3245 23.5102 19.5327 24.5125 18.9854 25.6423C19.0478 25.6592 19.1102 25.6774 19.1713 25.6943C19.1089 25.6774 19.0465 25.6592 18.9841 25.6423C18.7735 25.9582 18.5485 26.2676 18.3535 26.594C18.1026 27.0152 17.762 27.2453 17.2602 27.1998C17.0092 27.0334 16.757 26.8683 16.5061 26.7019C16.2799 26.4354 16.055 26.1701 15.8288 25.9049ZM15.7274 26.7877C15.6636 26.789 15.5999 26.7903 15.5362 26.7955C15.5999 26.7916 15.6636 26.789 15.7274 26.7877ZM19.8174 25.7996C19.8148 25.7996 19.8135 25.7996 19.8109 25.7996C19.8122 25.7996 19.8148 25.7996 19.8174 25.7996ZM13.9319 9.26638C13.7681 9.20268 13.6147 9.10517 13.5198 8.89196C13.5185 8.89066 13.5159 8.89066 13.5146 8.89066C13.5159 8.89196 13.5172 8.89196 13.5198 8.89196C13.5289 8.89586 13.5406 8.89846 13.551 8.89976C13.5848 8.90366 13.603 8.90106 13.6108 8.89456C13.6784 8.90886 13.7109 8.90626 13.7395 8.91536C13.6992 8.90366 13.6537 8.91146 13.6108 8.91146C13.6576 9.11427 13.7837 9.20528 13.9319 9.26638Z" fill="#F96407"/>
<path d="M17.0793 17.2351C17.2288 17.2663 17.5317 17.1935 17.4329 17.5042C17.3419 17.7902 17.3484 18.2556 17.0221 18.2907C16.7881 18.3154 16.5241 17.9592 16.5163 17.629C16.5072 17.278 16.7725 17.2247 17.0793 17.2351Z" fill="#F8F9FE"/>
</svg>
