<svg width="32" height="31" viewBox="0 0 32 31" fill="none" xmlns="http://www.w3.org/2000/svg">
<rect x="0.878113" y="0.775391" width="30.1844" height="30.2049" rx="3" fill="#F96407"/>
<path d="M15.2909 3.97377C18.7465 3.97377 22.2009 3.97377 25.6566 3.97377C26.3159 3.97377 26.9587 3.97249 27.6052 3.72794C28.312 3.46035 28.6308 3.72923 28.6308 4.44878C28.6295 11.7621 28.627 19.0755 28.6257 26.3888C28.6257 26.5808 28.6321 26.7729 28.618 26.9637C28.5565 27.7498 28.1776 28.1121 27.3837 28.1288C25.38 28.1723 23.3763 28.1864 21.3738 28.253C17.1576 28.3938 12.9414 28.559 8.72653 28.7165C7.47051 28.7638 6.21321 28.8151 4.95719 28.865C3.84713 28.9085 3.36316 28.5091 3.31707 27.399C3.26841 26.207 3.28506 25.0124 3.28122 23.8179C3.26841 19.0422 3.28762 14.2665 3.23128 9.49078C3.2108 7.9787 3.18903 6.46533 3.16214 4.95324C3.1455 3.98273 3.22488 3.9136 4.22099 3.9136C7.91095 3.9136 11.6009 3.9136 15.2909 3.9136C15.2909 3.9328 15.2909 3.95329 15.2909 3.97377ZM25.4581 15.4636C26.4145 14.342 27.1878 13.1641 27.1341 11.5829C27.0739 9.83648 27.111 8.08624 27.1085 6.33729C27.1072 5.11456 27.1097 5.10816 25.8678 5.11456C20.5569 5.14529 15.2461 5.17986 9.9339 5.21315C8.48327 5.22211 7.03263 5.22083 5.582 5.24516C4.76386 5.25924 4.66015 5.37447 4.67551 6.18365C4.69344 7.12086 4.7549 8.05808 4.76514 8.99529C4.81635 13.6647 4.84964 18.3341 4.90598 23.0036C4.92006 24.1751 4.86116 25.3466 4.9956 26.5168C5.04938 26.9803 5.19149 27.2069 5.70747 27.1148C6.16712 27.0328 6.63957 27.0059 7.10689 26.9893C10.921 26.8587 14.7352 26.7307 18.5506 26.6154C21.192 26.536 23.8359 26.5783 26.4747 26.3722C27.0406 26.3286 27.111 26.1186 27.1085 25.6347C27.0893 22.4146 27.0969 19.1933 27.0969 15.9732C27.0969 15.7952 27.0969 15.6172 27.0969 15.3548C26.9612 15.4738 26.9087 15.5071 26.8729 15.5532C26.7538 15.703 26.6309 15.8515 26.5246 16.0116C24.2981 19.3981 21.2304 21.6758 17.4111 23.001C15.6929 23.5964 13.9196 23.7487 12.1348 23.8652C10.6202 23.9638 9.11191 23.8089 7.61007 23.6207C7.13634 23.5605 6.29259 22.5106 6.35789 22.1022C6.42575 21.6797 7.16707 21.4159 7.8879 21.567C8.07483 21.6054 8.25792 21.663 8.43845 21.7258C8.96339 21.9089 9.49986 22.0369 10.0555 22.0779C13.7135 22.558 17.1717 21.9473 20.3854 20.1189C22.4262 18.9564 24.1675 17.4507 25.4581 15.4636Z" fill="#FAFBFE"/>
<path d="M23.5465 11.3262C21.8462 12.6104 19.9756 13.4951 17.8118 13.531C17.2165 13.5412 16.607 13.289 16.0232 13.0982C15.6788 12.9856 15.4176 12.6219 15.4919 12.307C15.5674 11.9818 16.0155 11.9421 16.3138 12.0099C18.7542 12.572 20.571 11.3339 22.3519 9.96906C22.3724 9.96522 22.3942 9.96138 22.4147 9.95753C22.8423 9.85895 23.3609 9.62464 23.6656 10.0075C23.969 10.3877 23.7847 10.8999 23.5465 11.3262Z" fill="#FAFBFE"/>
<path d="M7.11194 15.456C7.87246 15.6826 8.48447 15.3779 9.03118 14.8965C9.74945 14.2627 10.4511 13.6085 11.1604 12.9632C11.4049 12.7404 11.7058 12.4894 11.9939 12.7622C12.2589 13.0144 12.0899 13.3409 11.8787 13.6149C10.6367 15.2179 9.28725 16.6787 7.23997 17.2575C6.19265 17.4252 5.72916 16.7287 5.33097 15.9528C5.1146 15.5315 5.26184 15.3395 5.73428 15.2908C6.21313 15.2435 6.64845 15.4458 7.11194 15.456Z" fill="#FAFBFE"/>
<path d="M14.8607 16.0645C14.7545 16.5933 14.8518 17.0939 14.2462 17.1016C13.8467 17.1067 13.4255 16.6163 13.5125 16.222C13.6034 15.8136 13.8723 15.5652 14.3255 15.5856C14.7352 15.6049 14.871 15.8456 14.8607 16.0645Z" fill="#F8F9FE"/>
</svg>
