<svg width="60" height="57" viewBox="0 0 60 57" fill="none" xmlns="http://www.w3.org/2000/svg">
<path d="M26.946 1.30708L2.77307 18.8701C0.954155 20.193 0.191311 22.5344 0.888012 24.6752L10.1215 53.0923C10.816 55.2309 12.8091 56.6794 15.0602 56.6794H44.9389C47.1878 56.6794 49.1809 55.2309 49.8776 53.0923L59.1111 24.6752C59.8056 22.5366 59.0449 20.193 57.226 18.8701L33.0487 1.30708C31.2298 -0.0157713 28.7649 -0.0157713 26.946 1.30708Z" fill="#274CFF"/>
<path d="M30.2196 3.26742C30.9273 2.8419 31.5116 2.99403 32.0584 3.59372C32.5721 4.15594 33.1365 4.66964 33.6789 5.2054C35.3721 7.18086 37.277 8.94466 39.1731 10.7217C39.3341 10.9179 39.4818 11.1296 39.6582 11.3126C42.7735 14.5293 45.891 17.7438 49.0085 20.9606C49.8772 21.8557 50.6974 22.8103 51.8196 23.4056C52.5692 23.8047 52.7235 24.3801 52.5273 25.154C51.9034 27.641 51.3037 30.1345 50.6885 32.6259C49.6611 36.7863 48.6271 40.9444 47.5975 45.1048C47.2646 46.3791 46.9515 47.6601 46.5921 48.9278C46.1401 50.5263 45.32 51.1524 43.6664 51.2494C43.0072 51.2869 42.3502 51.331 41.6932 51.3949C37.6827 51.7918 33.7097 52.4863 29.6971 52.8831C27.4835 53.1014 25.2457 53.1654 23.063 53.6614C22.0576 53.7695 21.0457 53.8312 20.0513 53.9943C18.9159 54.1817 17.8267 54.1487 16.7706 53.6614C15.6859 51.0576 14.6254 48.4428 13.5098 45.85C10.9303 39.8509 8.32865 33.8583 5.71822 27.8724C5.39192 27.125 5.37208 26.5408 6.00263 25.8926C10.6062 21.1458 15.4853 16.6877 20.3137 12.1724C23.5591 9.13427 26.9632 6.28352 30.2196 3.26742ZM47.5225 31.5147C47.5556 30.9128 47.1433 30.5777 46.7332 30.2734C42.7029 27.2904 38.3485 24.8652 33.7693 22.8324C33.1056 22.5369 32.5126 22.6053 31.8886 22.9735C30.5614 23.7584 29.2275 24.5322 27.8672 25.2576C22.5405 28.0995 17.9281 31.8873 13.5738 36.019C13.1019 36.4666 12.6764 36.9759 12.9542 37.6571C13.6156 39.2886 14.3322 40.8981 15.0311 42.5142C15.1854 42.8714 15.3287 42.9133 15.6572 42.6046C18.4705 39.9699 21.7468 38.0716 25.4794 37.1765C32.2061 35.5648 38.9394 34.6146 45.1745 38.9006C45.439 39.0836 45.6485 39.1498 45.7411 38.7771C46.343 36.3607 46.9294 33.9399 47.5225 31.5147ZM34.7945 37.7938C31.5028 37.5645 28.1935 38.3715 24.9437 39.4496C21.9099 40.4572 19.1474 41.9189 16.9955 44.3794C16.4399 45.0144 16.2834 45.592 16.6406 46.3681C17.1631 47.4991 17.668 48.6434 18.0891 49.8141C18.3977 50.6696 18.9048 50.8989 19.7713 50.7953C27.1153 49.9111 34.4329 48.7911 41.8078 48.1562C43.1196 48.0437 43.834 47.4683 43.9861 46.3637C44.1713 45.0144 44.5704 43.7202 44.8834 42.4018C45.2979 40.6666 45.2274 40.4969 43.6885 39.6017C40.9854 38.0319 38.0178 37.7211 34.7945 37.7938ZM33.0968 20.6254C33.4187 20.5152 33.809 20.4138 34.1749 20.255C36.5296 19.232 38.8623 18.1583 41.2346 17.1838C42.1672 16.8002 42.0966 16.4695 41.508 15.8125C38.3265 12.2628 35.1561 8.70213 32.0297 5.10177C31.5138 4.50649 31.247 4.57043 30.7554 5.06429C28.9166 6.90747 27.0382 8.71536 25.1818 10.5431C23.2989 12.3973 21.4227 14.2581 19.553 16.1211C19.3877 16.2865 19.0658 16.421 19.2113 16.7318C19.3171 16.9567 19.5971 16.8707 19.8044 16.9104C20.6312 17.0692 21.4756 17.164 22.2781 17.3999C25.4772 18.3369 28.6609 19.3202 31.8511 20.2837C32.2392 20.3983 32.6294 20.4976 33.0968 20.6254ZM30.773 21.8645C30.579 21.7388 30.4688 21.6396 30.3387 21.5845C26.4275 19.9728 22.3465 18.9476 18.2324 18.0282C17.776 17.9268 17.4651 18.1252 17.1653 18.4339C14.4027 21.2714 11.638 24.1089 8.85999 26.9354C8.52267 27.2772 8.48739 27.5792 8.68141 28.0113C9.58756 30.0133 10.5025 32.0152 11.3403 34.048C11.7129 34.9497 12.0238 34.8373 12.6279 34.2596C15.7895 31.2325 19.2863 28.6353 22.9726 26.2806C25.475 24.6778 28.0987 23.2954 30.773 21.8645ZM35.2994 21.2516C39.5127 23.5842 43.5121 25.7956 47.5049 28.018C48.0958 28.3465 48.3449 28.1855 48.475 27.5461C48.6205 26.8318 48.8542 26.1329 49.0548 25.4296C49.2202 24.8519 49.0945 24.3647 48.6888 23.9105C46.9361 21.9439 45.1921 19.9662 43.4547 17.9841C43.1858 17.6777 42.9609 17.5233 42.5265 17.7394C40.2027 18.8925 37.8591 20.0125 35.2994 21.2516Z" fill="#FAFBFE"/>
<path d="M32.8985 28.5401C33.7848 28.5467 34.2853 29.1155 34.3029 30.1187C34.3161 30.908 33.9237 31.3754 33.1542 31.4283C32.5413 31.4702 31.8578 30.3745 31.8887 29.4992C31.9152 28.765 32.1577 28.5357 32.8985 28.5401Z" fill="#F8F9FE"/>
</svg>
