<svg width="54" height="53" viewBox="0 0 54 53" fill="none" xmlns="http://www.w3.org/2000/svg">
<rect x="0.695801" y="0.248535" width="52.395" height="52.4307" rx="3" fill="#274CFF"/>
<path d="M25.7138 5.80111C31.7122 5.80111 37.7084 5.80111 43.7069 5.80111C44.8514 5.80111 45.9671 5.79889 47.0895 5.37439C48.3163 4.9099 48.8697 5.37662 48.8697 6.62564C48.8674 19.3204 48.863 32.0151 48.8608 44.7098C48.8608 45.0432 48.8719 45.3766 48.8474 45.7077C48.7408 47.0723 48.0829 47.7013 46.705 47.7302C43.2268 47.8057 39.7487 47.8302 36.2727 47.9457C28.9541 48.1902 21.6356 48.4769 14.3192 48.7503C12.139 48.8325 9.9565 48.9214 7.77626 49.0081C5.84938 49.0836 5.00929 48.3902 4.92928 46.4634C4.84483 44.3942 4.87372 42.3207 4.86705 40.2471C4.84483 31.9573 4.87816 23.6675 4.78037 15.3777C4.74481 12.753 4.70703 10.126 4.66036 7.50129C4.63147 5.81667 4.76926 5.69665 6.49834 5.69665C12.9035 5.69665 19.3086 5.69665 25.7138 5.69665C25.7138 5.72999 25.7138 5.76555 25.7138 5.80111ZM43.3624 25.7455C45.0226 23.7986 46.3649 21.754 46.2716 19.0092C46.1671 15.9778 46.2316 12.9397 46.2271 9.90378C46.2249 7.78133 46.2294 7.77021 44.0736 7.78133C34.8548 7.83466 25.636 7.89467 16.415 7.95246C13.8969 7.96801 11.3789 7.96579 8.86082 8.00802C7.44067 8.03246 7.26065 8.23249 7.28732 9.63708C7.31843 11.2639 7.42511 12.8908 7.44289 14.5176C7.53179 22.623 7.58957 30.7283 7.68736 38.8336C7.71181 40.8672 7.60957 42.9007 7.84293 44.9321C7.93628 45.7366 8.18297 46.13 9.07862 45.97C9.87649 45.8277 10.6966 45.7811 11.5078 45.7522C18.1285 45.5255 24.7492 45.3032 31.3722 45.1032C35.9571 44.9654 40.5465 45.0388 45.127 44.6809C46.1094 44.6054 46.2316 44.2409 46.2271 43.4008C46.1938 37.8113 46.2071 32.2196 46.2071 26.6301C46.2071 26.3211 46.2071 26.0122 46.2071 25.5566C45.9716 25.7633 45.8804 25.8211 45.8182 25.9011C45.6115 26.1611 45.3982 26.4189 45.2137 26.6967C41.3488 32.5752 36.0238 36.5289 29.3942 38.8292C26.4116 39.8626 23.3335 40.1271 20.2354 40.3293C17.6062 40.5005 14.9882 40.2316 12.3812 39.9049C11.5589 39.8004 10.0943 37.978 10.2076 37.269C10.3254 36.5356 11.6122 36.0778 12.8635 36.34C13.188 36.4067 13.5058 36.5067 13.8191 36.6156C14.7304 36.9334 15.6616 37.1557 16.6261 37.2268C22.9757 38.0602 28.9786 37.0001 34.557 33.8264C38.0996 31.8084 41.1221 29.1948 43.3624 25.7455Z" fill="#FAFBFE"/>
<path d="M40.0441 18.5626C37.0927 20.7918 33.8456 22.3275 30.0897 22.3897C29.0562 22.4075 27.9983 21.9697 26.9849 21.6385C26.387 21.443 25.9337 20.8118 26.0626 20.265C26.1937 19.7005 26.9716 19.6316 27.4894 19.7494C31.7254 20.7251 34.8791 18.576 37.9705 16.2068C38.0061 16.2002 38.0439 16.1935 38.0794 16.1868C38.8217 16.0157 39.7218 15.609 40.2508 16.2735C40.7775 16.9336 40.4575 17.8226 40.0441 18.5626Z" fill="#FAFBFE"/>
<path d="M11.5167 25.7319C12.8369 26.1253 13.8992 25.5963 14.8482 24.7607C16.095 23.6606 17.3129 22.5249 18.5442 21.4048C18.9687 21.0181 19.4909 20.5825 19.991 21.0558C20.4511 21.4937 20.1577 22.0604 19.791 22.536C17.6352 25.3185 15.2927 27.8544 11.739 28.8589C9.92101 29.1501 9.11648 27.941 8.42529 26.5942C8.04969 25.863 8.30527 25.5297 9.12537 25.4452C9.95657 25.363 10.7122 25.7141 11.5167 25.7319Z" fill="#FAFBFE"/>
<path d="M24.9672 26.7883C24.7828 27.7062 24.9517 28.5752 23.9004 28.5885C23.207 28.5974 22.4758 27.7462 22.627 27.0617C22.7848 26.3527 23.2515 25.9216 24.0382 25.9571C24.7494 25.9905 24.985 26.4083 24.9672 26.7883Z" fill="#F8F9FE"/>
</svg>
