<svg width="239" height="240" viewBox="0 0 239 240" fill="none" xmlns="http://www.w3.org/2000/svg">
<path d="M153.596 219.476C150.85 220.237 148.104 220.997 145.358 221.758C139.718 222.556 134.106 223.335 128.373 223.502C120.553 223.725 113.16 221.248 105.497 220.58C100.72 218.057 95.256 217.046 90.8033 213.827C87.7606 212.194 84.4211 210.951 81.7402 208.864C74.5417 203.261 67.3988 197.546 61.0351 190.951C53.447 182.12 47.7141 172.036 41.6381 162.185C40.7753 160.598 39.9034 159.012 39.0406 157.426C38.2893 154.903 38.5675 152.843 41.4711 151.953C46.0165 151.35 48.382 152.982 49.1613 157.871C49.7457 161.517 51.3876 165.134 54.1149 167.964C56.9535 173.363 60.7847 178.047 64.7364 182.639C65.1724 184.012 66.2671 184.801 67.3802 185.561C79.3469 199.058 94.1985 207.917 111.592 212.389C125.989 216.09 140.349 215.682 153.781 208.91C176.202 197.611 190.349 179.661 195.349 154.828C196.49 148.993 198.429 143.27 198.113 137.203C198.707 129.986 198.355 122.815 196.908 115.709C195.405 110.849 195.006 105.654 192.65 101.043C193.262 99.6426 191.898 99.0025 191.481 97.9914C190.831 95.8393 191.212 93.2882 189.069 91.7112C188.679 90.8021 188.29 89.8931 187.909 88.9932C187.13 87.4162 186.351 85.8392 185.572 84.2622C185.312 82.2585 183.54 81.2196 182.631 79.6333C177.019 69.2158 169.505 60.3846 160.154 53.1675C139.115 36.943 115.868 29.9671 89.5232 37.0172C70.3765 42.1378 56.3969 54.1601 47.1761 71.2659C36.4803 91.1175 34.6158 112.491 39.0221 134.466C39.6343 137.518 40.3022 140.515 38.549 143.409C36.6659 143.594 36.3876 142.231 35.9238 140.867C32.9924 132.212 31.7586 123.26 31.3968 114.207C30.8032 99.4385 33.7252 85.2363 38.7809 71.4236C39.0406 71.0525 39.3746 70.7093 39.5601 70.3104C54.8941 36.841 88.1966 19.5311 124.588 25.7834C139.069 28.2695 151.703 34.6703 163.688 42.7315C168.716 47.3141 173.744 51.8874 178.772 56.4699C179.356 57.6944 180.21 58.6777 181.36 59.4013C189.162 69.6425 195.841 80.5053 200.145 92.7316C208.54 116.554 209.7 140.645 202.882 165.042C199.44 174.467 194.857 183.326 189.57 191.832C187.084 194.912 184.598 197.992 182.112 201.062C173.939 209.253 164.403 215.357 153.596 219.476Z" fill="#F8F9FE"/>
<path d="M76.6191 136.264C80.877 133.824 85.2277 135.763 89.2722 136.57C107.862 140.29 126.369 144.483 144.885 148.555C146.304 148.871 148.289 149.14 147.677 151.375C147.13 153.351 145.506 153.63 143.586 153.388C130.886 151.756 118.308 149.4 105.729 147.053C101.526 146.273 97.3242 145.503 92.1108 144.539C99.3094 153.407 105.905 161.524 112.5 169.65C115.033 172.767 117.686 175.791 120.061 179.019C122.018 181.682 123.27 182.164 125.181 178.843C129.031 172.155 133.168 165.633 137.352 159.14C139.977 155.058 143.335 154.956 146.016 158.602C143.168 167.21 137.519 174.363 133.614 182.424C132.102 184.678 130.497 186.886 129.115 189.214C127.324 192.22 124.894 193.862 121.313 193.537C119.523 192.35 117.723 191.171 115.933 189.984C114.328 188.092 112.714 186.199 111.1 184.307C105.719 179.131 102.333 172.368 97.2129 166.978C95.2277 164.891 93.4466 162.6 91.5728 160.401C86.9902 153.657 81.1461 147.86 76.9717 140.819C76.8418 139.288 76.7305 137.776 76.6191 136.264Z" fill="#F8F9FE"/>
<path d="M88.7551 83.5183C95.1373 90.2067 98.616 98.6946 102.902 106.663C103.727 108.203 103.588 110.402 101.872 111.125C99.9518 111.923 99.488 109.594 98.7644 108.416C95.8702 103.676 93.0409 98.8987 89.4323 94.6501C86.1392 90.7818 84.859 90.8282 81.3989 94.7058C77.4935 99.0842 75.6196 104.446 73.8386 109.901C72.8924 112.804 71.8256 116.069 67.4842 114.808C66.8441 113.927 66.204 113.055 65.564 112.173C65.564 110.012 65.564 107.851 65.5732 105.68C67.7996 97.5444 70.9907 90.049 78.3933 85.0675C81.6865 82.869 84.961 81.8208 88.7551 83.5183Z" fill="#F8F9FE"/>
<path d="M164.692 103.835C164.033 104.762 164.135 106.506 162.41 106.293C161.139 106.145 160.87 104.864 160.499 103.89C158.671 99.1131 156.148 94.6882 153.393 90.421C150.026 85.1984 145.128 85.4674 142.391 90.9591C140.397 94.9572 139.005 99.2058 137.595 103.454C136.816 105.811 135.369 109.521 132.901 108.761C130.109 107.898 127.818 104.762 128.597 100.931C130.267 92.7309 133.458 85.3561 140.174 79.9386C140.972 79.6232 141.769 79.3171 142.558 79.0017C143.17 78.8904 143.792 78.7791 144.404 78.6677C149.358 78.4451 153.875 79.3449 157.15 83.5286C158.69 87.4062 160.545 91.126 162.873 94.6047C163.857 97.6103 165.387 100.505 164.692 103.835Z" fill="#F8F9FE"/>
<path d="M119.366 0.45782C50.767 0.708284 -0.14219 54.2984 0.0989979 120.031C0.349462 187.87 53.6242 238.167 119.469 239.317C187.279 238.009 239.098 185.523 238.764 119.484C238.43 51.163 184.914 0.225908 119.366 0.45782ZM128.374 223.501C120.554 223.724 113.161 221.247 105.498 220.579C100.721 218.056 95.257 217.045 90.795 213.826C87.7523 212.193 84.4128 210.95 81.7319 208.863C74.5333 203.26 67.3905 197.546 61.0268 190.95C53.4387 182.119 47.7058 172.035 41.6297 162.184C40.767 160.597 39.895 159.011 39.023 157.425C38.2716 154.902 38.5499 152.842 41.4627 151.952C46.0082 151.349 48.3737 152.981 49.1529 157.87C49.7374 161.516 51.3793 165.134 54.1066 167.963C56.9452 173.362 60.7763 178.046 64.7281 182.638C65.1641 184.011 66.2587 184.8 67.3719 185.56C79.3385 199.058 94.1902 207.917 111.584 212.388C125.981 216.089 140.341 215.681 153.773 208.909C176.194 197.61 190.341 179.661 195.341 154.827C196.482 148.993 198.421 143.269 198.105 137.202C198.699 129.985 198.346 122.814 196.899 115.709C195.396 110.848 194.997 105.653 192.641 101.043C193.254 99.6418 191.89 99.0017 191.472 97.9905C190.823 95.8384 191.203 93.2874 189.061 91.7104C188.671 90.8013 188.281 89.8922 187.901 88.9924C187.122 87.4154 186.343 85.8384 185.563 84.2614C185.313 82.2577 183.532 81.2187 182.623 79.6324C177.01 69.215 169.496 60.3838 160.146 53.1667C139.116 36.9421 115.869 29.9662 89.5241 37.0164C70.3775 42.137 56.3979 54.1593 47.177 71.2651C36.4813 91.1167 34.6167 112.49 39.023 134.466C39.6353 137.518 40.3032 140.514 38.5407 143.408C36.6575 143.594 36.3792 142.23 35.9154 140.866C32.9841 132.211 31.7503 123.26 31.3885 114.206C30.7948 99.4377 33.7169 85.2354 38.7726 71.4228C39.0323 71.0517 39.3663 70.7177 39.5518 70.3096C54.8951 36.8401 88.1976 19.5302 124.589 25.7826C139.07 28.2687 151.704 34.6694 163.689 42.7307C168.717 47.3132 173.745 51.8865 178.773 56.4691C179.357 57.6936 180.211 58.6769 181.361 59.4005C189.163 69.6417 195.842 80.5044 200.146 92.7308C208.541 116.553 209.701 140.644 202.882 165.041C199.441 174.466 194.858 183.325 189.571 191.831C187.085 194.911 184.599 197.991 182.112 201.061C173.931 209.252 164.404 215.356 153.587 219.484C150.842 220.245 148.096 221.006 145.35 221.766C145.285 222.351 145.127 222.945 144.84 223.39C145.127 222.945 145.294 222.351 145.35 221.766C139.719 222.555 134.107 223.334 128.374 223.501ZM40.9804 148.371C41.1288 148.77 41.2679 149.178 41.3607 149.605C41.2587 149.187 41.1288 148.779 40.9804 148.371ZM65.563 112.174C65.563 110.013 65.563 107.851 65.5723 105.681C67.7986 97.5453 70.9897 90.0499 78.3924 85.0684C81.6855 82.8606 84.9601 81.8124 88.7542 83.51C95.1364 90.1983 98.615 98.6863 102.901 106.655C103.726 108.195 103.587 110.393 101.871 111.117C99.9509 111.915 99.487 109.586 98.7635 108.408C95.8692 103.668 93.0399 98.8904 89.4313 94.6417C86.1382 90.7735 84.858 90.8198 81.3979 94.6974C77.4925 99.0759 75.6187 104.438 73.8376 109.892C72.8914 112.796 71.8246 116.061 67.4832 114.799C66.8339 115.876 66.268 116.942 65.8598 118.009C66.268 116.942 66.8339 115.866 67.4925 114.799C66.8432 113.928 66.2031 113.056 65.563 112.174C64.2829 110.978 63.6335 109.948 63.6335 108.927C63.6428 109.957 64.2829 110.978 65.563 112.174ZM142.576 79.0016C143.188 78.8903 143.81 78.779 144.422 78.6677C149.376 78.445 153.893 79.3449 157.159 83.5285C158.699 87.4061 160.554 91.126 162.882 94.6046C163.856 97.6102 165.387 100.504 164.691 103.835C164.033 104.762 164.135 106.506 162.409 106.293C161.138 106.145 160.869 104.864 160.498 103.89C158.671 99.113 156.148 94.6881 153.393 90.421C150.025 85.1983 145.127 85.4673 142.391 90.959C140.396 94.9571 139.005 99.2058 137.595 103.454C136.816 105.811 135.368 109.521 132.901 108.761C130.109 107.898 127.817 104.762 128.597 100.931C130.266 92.7308 133.457 85.356 140.174 79.9386C140.981 79.6232 141.778 79.317 142.576 79.0016ZM175.86 137.601C175.795 138.121 175.563 138.538 175.099 138.77C175.563 138.529 175.786 138.121 175.86 137.601ZM133.198 77.9534C133.207 77.9534 133.226 77.9534 133.235 77.9534C133.226 77.9534 133.216 77.9534 133.198 77.9534ZM122.539 124.354C121.89 126.395 121.927 129.716 119.608 129.967C117.938 130.143 116.055 127.601 115.999 125.245C115.934 122.74 117.827 122.36 120.016 122.434C121.083 122.647 123.244 122.137 122.539 124.354ZM100.099 66.4506C100.73 66.7103 101.305 67.0535 101.741 67.6009C101.305 67.0628 100.73 66.7196 100.099 66.4506ZM65.1919 121.534V121.543C65.1919 121.543 65.1919 121.543 65.1919 121.534ZM65.2754 120.143C65.3404 119.716 65.4424 119.299 65.5723 118.872C65.4424 119.299 65.3404 119.725 65.2754 120.143ZM111.092 184.299C109.404 185.931 108.049 185.384 106.806 184.521C106.556 184.345 106.315 184.16 106.073 183.983C106.315 184.169 106.556 184.354 106.806 184.521C108.049 185.375 109.404 185.931 111.092 184.299C105.712 179.122 102.326 172.36 97.205 166.97C95.2199 164.883 93.4388 162.592 91.5649 160.393C86.9824 153.649 81.1382 147.852 76.9638 140.811C76.8525 139.299 76.7411 137.787 76.6205 136.265C80.8784 133.826 85.2291 135.764 89.2736 136.571C107.864 140.291 126.37 144.484 144.886 148.557C146.305 148.872 148.29 149.141 147.678 151.377C147.131 153.352 145.508 153.631 143.587 153.39C130.888 151.757 118.309 149.401 105.73 147.054C101.528 146.275 97.3256 145.505 92.1122 144.54C99.3108 153.408 105.906 161.525 112.502 169.651C115.034 172.768 117.687 175.792 120.062 179.02C122.02 181.683 123.272 182.165 125.183 178.844C129.033 172.156 133.17 165.635 137.354 159.141C139.979 155.059 143.337 154.957 146.018 158.603C143.17 167.212 137.521 174.364 133.615 182.425C134.06 182.546 134.506 182.675 134.942 182.796C134.496 182.675 134.051 182.546 133.606 182.425C132.103 184.679 130.498 186.887 129.107 189.215C127.316 192.221 124.886 193.863 121.305 193.538C119.515 192.351 117.715 191.173 115.925 189.985C114.311 188.084 112.706 186.191 111.092 184.299ZM110.368 190.597C109.914 190.607 109.459 190.616 109.005 190.653C109.459 190.625 109.914 190.607 110.368 190.597ZM139.552 183.547C139.534 183.547 139.524 183.547 139.506 183.547C139.515 183.547 139.534 183.547 139.552 183.547ZM97.5575 65.5786C96.3887 65.124 95.2941 64.4283 94.6169 62.907C94.6076 62.8977 94.5891 62.8977 94.5798 62.8977C94.5891 62.907 94.5983 62.907 94.6169 62.907C94.6818 62.9348 94.7653 62.9533 94.8395 62.9626C95.0807 62.9904 95.2106 62.9719 95.2662 62.9255C95.7486 63.0276 95.9805 63.009 96.1846 63.0739C95.897 62.9905 95.5724 63.0461 95.2662 63.0461C95.6002 64.4932 96.5 65.1426 97.5575 65.5786Z" fill="#F76408"/>
<path d="M120.015 122.435C121.082 122.658 123.243 122.138 122.538 124.355C121.889 126.396 121.935 129.717 119.607 129.968C117.937 130.144 116.054 127.602 115.998 125.246C115.933 122.741 117.826 122.361 120.015 122.435Z" fill="#F8F9FE"/>
</svg>
