<svg width="217" height="216" viewBox="0 0 217 216" fill="none" xmlns="http://www.w3.org/2000/svg">
<rect x="0.745117" y="0.317627" width="215.373" height="215.52" rx="3" fill="#274CFF"/>
<path d="M103.583 23.1419C128.24 23.1419 152.888 23.1419 177.545 23.1419C182.25 23.1419 186.836 23.1328 191.449 21.3879C196.492 19.4786 198.767 21.397 198.767 26.5312C198.758 78.7138 198.74 130.896 198.73 183.079C198.73 184.449 198.776 185.819 198.676 187.181C198.237 192.79 195.533 195.375 189.869 195.494C175.572 195.805 161.274 195.905 146.986 196.38C116.903 197.385 86.8194 198.564 56.745 199.687C47.783 200.025 38.8118 200.391 29.8498 200.747C21.9292 201.058 18.476 198.207 18.1471 190.287C17.7999 181.782 17.9187 173.258 17.8913 164.735C17.7999 130.659 17.937 96.583 17.535 62.5072C17.3888 51.7181 17.2335 40.9198 17.0417 30.1307C16.9229 23.2059 17.4893 22.7126 24.5968 22.7126C50.9256 22.7126 77.2544 22.7126 103.583 22.7126C103.583 22.8496 103.583 22.9958 103.583 23.1419ZM176.129 105.125C182.953 97.122 188.471 88.7172 188.087 77.4348C187.658 64.9738 187.923 52.4855 187.905 40.0062C187.896 31.2818 187.914 31.2361 179.052 31.2818C141.158 31.501 103.263 31.7477 65.3599 31.9852C55.0092 32.0491 44.6586 32.04 34.308 32.2136C28.4703 32.3141 27.7303 33.1363 27.84 38.91C27.9679 45.5972 28.4064 52.2845 28.4795 58.9717C28.8449 92.2893 29.0824 125.607 29.4844 158.924C29.5849 167.283 29.1646 175.642 30.1239 183.992C30.5076 187.299 31.5216 188.916 35.2033 188.259C38.4829 187.674 41.854 187.482 45.1885 187.363C72.4034 186.432 99.6183 185.518 126.842 184.696C145.689 184.129 164.554 184.431 183.383 182.96C187.421 182.649 187.923 181.151 187.905 177.698C187.768 154.722 187.823 131.737 187.823 108.761C187.823 107.491 187.823 106.221 187.823 104.348C186.854 105.198 186.48 105.435 186.224 105.764C185.374 106.833 184.497 107.893 183.739 109.035C167.852 133.198 145.963 149.451 118.712 158.906C106.452 163.154 93.799 164.241 81.0639 165.073C70.2565 165.776 59.4948 164.671 48.7787 163.328C45.3986 162.898 39.3782 155.407 39.8441 152.493C40.3283 149.478 45.6178 147.596 50.7612 148.674C52.095 148.948 53.4014 149.359 54.6895 149.807C58.4351 151.113 62.2629 152.027 66.2277 152.319C92.3281 155.745 117.003 151.387 139.934 138.342C154.496 130.047 166.92 119.303 176.129 105.125Z" fill="#FAFBFE"/>
<path d="M162.489 75.5994C150.357 84.7624 137.01 91.0751 121.571 91.3309C117.322 91.404 112.974 89.6043 108.808 88.2431C106.351 87.4392 104.487 84.8447 105.017 82.5973C105.556 80.2769 108.753 79.9937 110.882 80.4779C128.294 84.4884 141.258 75.6543 153.965 65.9157C154.112 65.8883 154.267 65.8609 154.413 65.8335C157.464 65.1301 161.164 63.4582 163.338 66.1898C165.504 68.9031 164.188 72.5573 162.489 75.5994Z" fill="#FAFBFE"/>
<path d="M45.2254 105.068C50.6519 106.685 55.0187 104.511 58.9196 101.076C64.0447 96.554 69.051 91.8857 74.1121 87.2814C75.857 85.6918 78.0039 83.9012 80.0594 85.8471C81.9504 87.6468 80.7445 89.9764 79.2372 91.9314C70.3756 103.369 60.7467 113.793 46.1389 117.922C38.666 119.119 35.3589 114.149 32.5177 108.613C30.9738 105.607 32.0244 104.237 35.3955 103.89C38.8122 103.552 41.9183 104.995 45.2254 105.068Z" fill="#FAFBFE"/>
<path d="M100.514 109.411C99.7559 113.184 100.45 116.756 96.1291 116.811C93.2788 116.847 90.2731 113.348 90.8944 110.534C91.543 107.62 93.4615 105.848 96.6955 105.994C99.6189 106.131 100.587 107.849 100.514 109.411Z" fill="#F8F9FE"/>
</svg>
