<svg width="242" height="232" viewBox="0 0 242 232" fill="none" xmlns="http://www.w3.org/2000/svg">
<path d="M108.688 4.38269L9.32406 76.5768C1.84727 82.0144 -1.28846 91.6391 1.57538 100.439L39.5303 217.249C42.3851 226.04 50.5778 231.994 59.8309 231.994H182.65C191.894 231.994 200.086 226.04 202.95 217.249L240.905 100.439C243.76 91.6482 240.633 82.0144 233.157 76.5768L133.774 4.38269C126.297 -1.05497 116.165 -1.05497 108.688 4.38269Z" fill="#F76408"/>
<path d="M122.145 12.4404C125.054 10.6913 127.456 11.3167 129.703 13.7817C131.815 16.0927 134.135 18.2044 136.364 20.4066C143.325 28.5269 151.155 35.7771 158.949 43.0817C159.61 43.8883 160.218 44.7583 160.943 45.5105C173.748 58.7331 186.563 71.9466 199.378 85.1692C202.949 88.8487 206.32 92.7729 210.933 95.2199C214.014 96.8602 214.649 99.2256 213.842 102.407C211.277 112.629 208.812 122.879 206.284 133.12C202.061 150.222 197.81 167.314 193.578 184.416C192.209 189.654 190.922 194.919 189.445 200.131C187.587 206.701 184.216 209.275 177.419 209.674C174.709 209.828 172.008 210.009 169.308 210.272C152.822 211.903 136.491 214.758 119.997 216.389C110.898 217.286 101.699 217.549 92.7272 219.588C88.5946 220.032 84.4347 220.286 80.3474 220.957C75.6801 221.727 71.2031 221.591 66.862 219.588C62.4031 208.885 58.0439 198.137 53.4582 187.479C42.8547 162.819 32.1607 138.186 21.4303 113.581C20.089 110.509 20.0075 108.107 22.5994 105.443C41.5225 85.9305 61.5784 67.6056 81.4259 49.045C94.7663 36.5565 108.759 24.8383 122.145 12.4404ZM193.27 128.553C193.406 126.079 191.711 124.701 190.025 123.45C173.458 111.188 155.559 101.219 136.736 92.8635C134.008 91.6491 131.57 91.9301 129.005 93.4435C123.55 96.6699 118.067 99.8509 112.475 102.833C90.5793 114.514 71.62 130.084 53.721 147.068C51.7816 148.908 50.0324 151.001 51.1744 153.802C53.8932 160.508 56.8386 167.124 59.7115 173.767C60.3459 175.235 60.935 175.407 62.2853 174.139C73.8494 163.308 87.3167 155.505 102.66 151.826C130.311 145.201 157.988 141.295 183.618 158.913C184.705 159.665 185.566 159.937 185.947 158.406C188.421 148.473 190.832 138.522 193.27 128.553ZM140.95 154.364C127.419 153.421 113.816 156.738 100.458 161.17C87.9874 165.311 76.6317 171.32 67.7864 181.434C65.5026 184.044 64.8592 186.419 66.3273 189.609C68.4752 194.258 70.5506 198.961 72.2816 203.774C73.5504 207.29 75.6348 208.233 79.1965 207.807C109.385 204.173 139.464 199.569 169.779 196.959C175.171 196.496 178.108 194.131 178.733 189.591C179.494 184.044 181.135 178.724 182.422 173.305C184.125 166.172 183.835 165.474 177.509 161.795C166.398 155.342 154.2 154.064 140.95 154.364ZM133.972 83.7917C135.295 83.3386 136.899 82.9217 138.404 82.2691C148.083 78.064 157.671 73.6504 167.423 69.6447C171.256 68.0678 170.966 66.7084 168.546 64.0076C155.469 49.4166 142.437 34.7802 129.586 19.9807C127.465 17.5337 126.368 17.7965 124.347 19.8266C116.789 27.4031 109.067 34.8346 101.437 42.3476C93.6969 49.9694 85.9845 57.6184 78.2993 65.2764C77.6195 65.9561 76.2964 66.509 76.8945 67.7868C77.3295 68.7112 78.4805 68.3578 79.3324 68.5209C82.7309 69.1734 86.202 69.5631 89.5008 70.5328C102.651 74.3845 115.738 78.4265 128.851 82.387C130.446 82.8582 132.051 83.266 133.972 83.7917ZM124.42 88.885C123.622 88.3684 123.169 87.9606 122.634 87.734C106.557 81.1091 89.7818 76.8949 72.8706 73.1157C70.9947 72.6988 69.7168 73.5145 68.4843 74.7833C57.1286 86.4471 45.7639 98.1109 34.3448 109.729C32.9582 111.134 32.8132 112.376 33.6107 114.152C37.3355 122.381 41.0966 130.61 44.5404 138.966C46.072 142.673 47.3499 142.21 49.8331 139.836C62.8291 127.393 77.2027 116.717 92.3556 107.038C102.642 100.449 113.427 94.7667 124.42 88.885ZM143.026 86.3655C160.345 95.9539 176.784 105.044 193.197 114.179C195.626 115.53 196.65 114.868 197.185 112.24C197.783 109.303 198.744 106.431 199.568 103.539C200.248 101.165 199.731 99.1622 198.064 97.2952C190.859 89.2112 183.69 81.0819 176.549 72.9345C175.443 71.6748 174.519 71.0404 172.733 71.9285C163.181 76.6683 153.547 81.2722 143.026 86.3655Z" fill="#FAFBFE"/>
<path d="M133.157 116.324C136.8 116.352 138.857 118.69 138.93 122.813C138.984 126.058 137.371 127.979 134.208 128.197C131.689 128.369 128.879 123.865 129.006 120.267C129.115 117.249 130.112 116.306 133.157 116.324Z" fill="#F8F9FE"/>
</svg>
