<svg width="256" height="227" viewBox="0 0 256 227" fill="none" xmlns="http://www.w3.org/2000/svg">
<path d="M128.236 226.304H6.07441C1.85216 226.304 -0.785608 221.606 1.34842 217.869L62.3925 110.618L123.51 3.23905C125.626 -0.470308 130.855 -0.470308 132.971 3.23905L194.089 110.618L255.133 217.869C257.258 221.606 254.629 226.304 250.407 226.304H128.236Z" fill="#274CFF"/>
<path d="M38.4979 219.345C37.6095 219.235 36.7211 219.116 35.8327 219.006C35.8693 218.722 35.7961 218.475 35.6037 218.255C34.0559 215.947 32.0592 213.877 31.6929 210.937C31.876 208.464 32.8103 206.229 33.8635 204.013C48.6369 172.909 63.4285 141.815 78.1377 110.683C84.2467 97.7511 90.1817 84.7363 96.1899 71.7581C101.456 60.4927 106.723 49.2272 111.98 37.9709C112.822 36.4139 113.665 34.8477 114.508 33.2907C116.422 31.8253 118.254 30.2042 120.919 30.4148C124.143 30.717 126.396 32.4481 128.145 35.0767C129.62 37.2931 131.269 39.3997 132.835 41.552C133.375 43.0083 134.135 44.3089 135.317 45.3438C135.628 46.4521 136.159 47.4229 137.176 48.0549C147.471 63.8357 157.692 79.6623 168.069 95.3881C177.265 109.337 186.625 123.176 195.912 137.061C198.806 141.778 201.481 146.651 204.668 151.166C207.141 154.674 208.753 158.869 212.371 161.543C214.404 167.286 218.754 171.618 221.676 176.811C223.316 179.733 226.137 182.251 225.248 186.162C222.94 189.881 219.57 191.969 215.265 192.61C188.521 196.567 161.777 200.468 135.042 204.48C117.494 207.118 99.9725 209.911 82.4424 212.631C71.7723 214.179 61.1021 215.727 50.432 217.284C46.2555 216.872 42.6286 219.546 38.4979 219.345ZM148.441 189.789C148.744 189.789 149.055 189.826 149.357 189.78C168.783 187.014 188.209 184.239 207.645 181.491C210.85 181.033 210.795 179.806 209.138 177.351C193.247 153.694 177.439 129.981 161.685 106.232C159.89 103.53 159.093 103.686 157.509 106.434C150.227 119.119 142.772 131.703 135.363 144.315C131.323 151.184 129.62 151.404 123.456 146.275C111.751 136.53 99.9359 126.913 88.2766 117.104C85.9594 115.162 85.016 115.245 83.7979 118.102C79.31 128.607 74.6756 139.049 69.9222 149.435C68.4751 152.604 68.9605 154.665 72.2027 155.993C73.6132 156.57 74.9962 157.22 76.4341 157.724C98.6628 165.49 119.344 176.618 140.281 187.188C142.882 188.498 145.428 189.862 148.441 189.789ZM154.908 97.8152C154.963 96.3773 154.376 95.1683 153.598 94.0051C142.754 77.803 131.937 61.5826 121.093 45.3896C120.369 44.3089 119.902 42.4954 118.373 42.6877C116.862 42.8801 116.834 44.7943 116.294 45.9758C108.106 63.9914 100.037 82.0619 91.7845 100.05C90.4106 103.045 90.7587 104.84 93.4148 106.947C104.625 115.84 115.744 124.861 126.689 134.075C129.73 136.64 131.122 135.816 132.99 132.921C139.676 122.553 146.536 112.305 153.351 102.019C154.202 100.728 154.899 99.4089 154.908 97.8152ZM134.236 191.868C132.816 190.815 132.395 190.375 131.873 190.137C115.094 182.535 98.3331 174.897 80.7663 169.227C75.967 167.679 71.0212 166.864 65.9564 166.818C63.8681 166.8 61.8532 167.157 60.9281 169.255C55.8083 180.758 50.7617 192.299 45.2664 204.81C75.271 200.441 104.268 196.228 134.236 191.868Z" fill="#FAFBFE"/>
<path d="M140.163 147.642C140.282 144.143 141.995 142.348 145.017 142.513C148.324 142.687 150.229 144.766 150.311 148.173C150.384 150.838 146.986 155.29 145.109 154.749C141.519 153.714 140.932 150.371 140.163 147.642Z" fill="#F8F9FE"/>
<path d="M107.96 148.585C107.932 146.809 107.804 145.215 109.975 144.995C112.072 144.785 114.206 144.253 115.47 146.772C117.274 150.371 115.443 153.165 113.556 155.94C112.603 157.351 111.779 156.343 111.037 155.592C109.059 153.595 107.694 151.315 107.96 148.585Z" fill="#F8F9FE"/>
<path d="M133.759 163.971C133.796 165.977 132.477 167.827 130.755 167.818C128.346 167.8 126.652 165.373 126.194 163.358C125.745 161.361 128.163 160.418 129.921 160.225C132.321 159.96 133.448 161.599 133.759 163.971Z" fill="#F8F9FE"/>
</svg>
