<svg width="59" height="59" viewBox="0 0 59 59" fill="none" xmlns="http://www.w3.org/2000/svg">
<path d="M38.0077 53.852C37.3397 54.0371 36.6717 54.2221 36.0037 54.4072C34.6316 54.6013 33.2663 54.7908 31.8716 54.8314C29.9692 54.8856 28.1706 54.2831 26.3065 54.1206C25.1443 53.5067 23.8151 53.2608 22.7319 52.4777C21.9917 52.0805 21.1792 51.7781 20.527 51.2703C18.7758 49.9072 17.0381 48.5171 15.49 46.9126C13.644 44.7641 12.2493 42.3111 10.7712 39.9144C10.5613 39.5285 10.3492 39.1426 10.1393 38.7567C9.95648 38.1429 10.0242 37.6419 10.7305 37.4252C11.8363 37.2785 12.4118 37.6757 12.6014 38.865C12.7436 39.7519 13.143 40.6321 13.8065 41.3204C14.497 42.6338 15.4291 43.7734 16.3904 44.8905C16.4965 45.2245 16.7628 45.4163 17.0336 45.6014C19.9448 48.8849 23.5578 51.0401 27.7892 52.1279C31.2917 53.0283 34.7851 52.929 38.0528 51.2816C43.5074 48.5329 46.9489 44.1661 48.1653 38.1248C48.4429 36.7053 48.9145 35.3129 48.8378 33.837C48.9822 32.0813 48.8965 30.3368 48.5444 28.6082C48.1788 27.4256 48.0818 26.1619 47.5086 25.0403C47.6575 24.6995 47.3258 24.5438 47.2242 24.2978C47.0663 23.7742 47.1588 23.1536 46.6375 22.77C46.5427 22.5488 46.4479 22.3277 46.3554 22.1088C46.1658 21.7251 45.9763 21.3415 45.7867 20.9578C45.7235 20.4704 45.2925 20.2176 45.0713 19.8317C43.706 17.2974 41.878 15.149 39.6032 13.3933C34.4849 9.44622 28.8296 7.74916 22.4204 9.46428C17.7625 10.71 14.3616 13.6347 12.1184 17.7961C9.51642 22.6256 9.06282 27.8251 10.1348 33.1713C10.2837 33.9138 10.4462 34.6427 10.0197 35.3468C9.56156 35.3919 9.49385 35.0602 9.38102 34.7284C8.66789 32.6229 8.36774 30.4452 8.27973 28.2426C8.1353 24.6499 8.84617 21.1948 10.0761 17.8345C10.1393 17.7442 10.2205 17.6607 10.2657 17.5637C13.996 9.4214 22.0977 5.21033 30.9509 6.73137C34.4737 7.33618 37.5473 8.89332 40.463 10.8544C41.6862 11.9693 42.9093 13.0818 44.1325 14.1967C44.2747 14.4945 44.4823 14.7338 44.7621 14.9098C46.66 17.4012 48.2849 20.0439 49.332 23.0182C51.3744 28.8135 51.6565 34.6743 49.9978 40.6095C49.1605 42.9023 48.0457 45.0575 46.7593 47.1269C46.1545 47.8762 45.5497 48.6254 44.9449 49.3724C42.9567 51.3651 40.6368 52.85 38.0077 53.852Z" fill="#F8F9FE"/>
<path d="M19.2812 33.6087C20.3171 33.0152 21.3755 33.4869 22.3594 33.6832C26.8819 34.5882 31.3841 35.6082 35.8886 36.5989C36.2339 36.6756 36.7168 36.7411 36.5678 37.285C36.4347 37.7656 36.0398 37.8334 35.5726 37.7747C32.4832 37.3775 29.423 36.8043 26.3629 36.2333C25.3406 36.0438 24.3183 35.8565 23.05 35.6218C24.8012 37.7792 26.4058 39.7538 28.0103 41.7307C28.6264 42.489 29.2718 43.2247 29.8495 44.01C30.3257 44.6577 30.6304 44.7751 31.0953 43.9672C32.0318 42.3401 33.0383 40.7536 34.0561 39.1739C34.6948 38.1809 35.5117 38.1561 36.1639 39.043C35.4711 41.1372 34.0967 42.8772 33.1466 44.8383C32.7788 45.3866 32.3884 45.9237 32.0521 46.4902C31.6166 47.2214 31.0253 47.6208 30.1542 47.5418C29.7187 47.253 29.2808 46.9664 28.8453 46.6775C28.4549 46.2171 28.0622 45.7568 27.6695 45.2964C26.3606 44.0371 25.5369 42.392 24.2912 41.0808C23.8083 40.573 23.375 40.0156 22.9191 39.4808C21.8043 37.8401 20.3825 36.4297 19.367 34.7168C19.3354 34.3444 19.3083 33.9766 19.2812 33.6087Z" fill="#F8F9FE"/>
<path d="M22.2336 20.7771C23.7863 22.4042 24.6325 24.4691 25.6752 26.4077C25.876 26.7823 25.8422 27.3171 25.4247 27.4932C24.9575 27.6872 24.8447 27.1208 24.6687 26.8342C23.9646 25.681 23.2762 24.5188 22.3984 23.4852C21.5972 22.5441 21.2858 22.5554 20.444 23.4987C19.494 24.5639 19.0381 25.8683 18.6048 27.1953C18.3746 27.9016 18.1151 28.696 17.0589 28.3891C16.9032 28.1747 16.7475 27.9626 16.5918 27.7482C16.5918 27.2224 16.5918 26.6965 16.5941 26.1685C17.1357 24.1893 17.912 22.3659 19.7129 21.154C20.514 20.6192 21.3106 20.3641 22.2336 20.7771Z" fill="#F8F9FE"/>
<path d="M40.7071 25.7195C40.5469 25.9452 40.5717 26.3694 40.1519 26.3175C39.8428 26.2814 39.7773 25.97 39.6871 25.733C39.2425 24.5708 38.6286 23.4943 37.9584 22.4562C37.1392 21.1857 35.9476 21.2511 35.2819 22.5871C34.7967 23.5598 34.4582 24.5934 34.1152 25.627C33.9256 26.2002 33.5736 27.1029 32.9733 26.9178C32.294 26.7079 31.7366 25.9452 31.9261 25.0131C32.3324 23.0182 33.1087 21.2241 34.7425 19.9061C34.9366 19.8294 35.1307 19.7549 35.3225 19.6782C35.4715 19.6511 35.6227 19.624 35.7716 19.597C36.9767 19.5428 38.0757 19.7617 38.8724 20.7795C39.247 21.7228 39.6983 22.6278 40.2648 23.474C40.504 24.2052 40.8764 24.9093 40.7071 25.7195Z" fill="#F8F9FE"/>
<path d="M29.6806 0.570504C12.992 0.631436 0.60706 13.6686 0.665735 29.6598C0.726667 46.1633 13.6871 58.3994 29.7054 58.6792C46.2022 58.361 58.8083 45.5924 58.727 29.5267C58.6458 12.9058 45.6267 0.514086 29.6806 0.570504ZM31.8719 54.8315C29.9695 54.8856 28.1708 54.2831 26.3068 54.1206C25.1446 53.5068 23.8153 53.2608 22.7298 52.4777C21.9896 52.0805 21.1772 51.7781 20.525 51.2703C18.7738 49.9073 17.0361 48.5171 15.488 46.9126C13.642 44.7642 12.2473 42.3111 10.7691 39.9144C10.5593 39.5285 10.3471 39.1426 10.135 38.7567C9.9522 38.1429 10.0199 37.6419 10.7285 37.4253C11.8343 37.2786 12.4098 37.6758 12.5994 38.8651C12.7415 39.752 13.141 40.6321 13.8045 41.3204C14.495 42.6338 15.427 43.7735 16.3884 44.8905C16.4945 45.2245 16.7608 45.4164 17.0316 45.6014C19.9428 48.885 23.5558 51.0402 27.7872 52.1279C31.2896 53.0283 34.7831 52.929 38.0508 51.2816C43.5054 48.5329 46.9469 44.1661 48.1633 38.1249C48.4408 36.7054 48.9125 35.313 48.8358 33.8371C48.9802 32.0813 48.8944 30.3369 48.5424 28.6082C48.1768 27.4257 48.0798 26.1619 47.5065 25.0403C47.6555 24.6995 47.3238 24.5438 47.2222 24.2978C47.0642 23.7743 47.1568 23.1537 46.6354 22.77C46.5407 22.5489 46.4459 22.3277 46.3534 22.1088C46.1638 21.7251 45.9742 21.3415 45.7847 20.9579C45.7237 20.4704 45.2904 20.2176 45.0693 19.8317C43.7039 17.2974 41.876 15.149 39.6012 13.3933C34.4852 9.44625 28.8298 7.74918 22.4207 9.4643C17.7628 10.71 14.3619 13.6347 12.1187 17.7962C9.51665 22.6256 9.06305 27.8251 10.135 33.1713C10.2839 33.9138 10.4464 34.6427 10.0176 35.3468C9.55953 35.3919 9.49183 35.0602 9.37899 34.7285C8.66586 32.6229 8.36572 30.4452 8.27771 28.2426C8.13327 24.6499 8.84415 21.1948 10.0741 17.8345C10.1373 17.7443 10.2185 17.663 10.2636 17.5637C13.9963 9.42142 22.098 5.21035 30.9511 6.73139C34.4739 7.3362 37.5476 8.89335 40.4633 10.8545C41.6864 11.9693 42.9096 13.0818 44.1327 14.1967C44.2749 14.4946 44.4825 14.7338 44.7624 14.9098C46.6603 17.4012 48.2851 20.0439 49.3322 23.0183C51.3746 28.8136 51.6567 34.6743 49.998 40.6095C49.1607 42.9024 48.0459 45.0575 46.7596 47.127C46.1548 47.8762 45.55 48.6254 44.9452 49.3724C42.9547 51.3651 40.637 52.8501 38.0057 53.8543C37.3377 54.0394 36.6697 54.2244 36.0017 54.4095C35.9859 54.5516 35.9475 54.6961 35.8776 54.8044C35.9475 54.6961 35.9882 54.5516 36.0017 54.4095C34.6319 54.6013 33.2665 54.7908 31.8719 54.8315ZM10.6112 36.5542C10.6473 36.6512 10.6811 36.7505 10.7037 36.8543C10.6789 36.7528 10.6473 36.6535 10.6112 36.5542ZM16.5915 27.7484C16.5915 27.2226 16.5915 26.6967 16.5938 26.1687C17.1354 24.1895 17.9117 22.3661 19.7126 21.1542C20.5137 20.6171 21.3104 20.3621 22.2334 20.7751C23.786 22.4022 24.6323 24.4671 25.6749 26.4056C25.8757 26.7802 25.8419 27.3151 25.4244 27.4911C24.9572 27.6852 24.8444 27.1187 24.6684 26.8321C23.9643 25.6789 23.276 24.5167 22.3981 23.4831C21.597 22.5421 21.2855 22.5534 20.4438 23.4967C19.4937 24.5619 19.0378 25.8663 18.6045 27.1932C18.3743 27.8996 18.1148 28.6939 17.0587 28.387C16.9007 28.6488 16.763 28.9083 16.6637 29.1679C16.763 28.9083 16.9007 28.6466 17.0609 28.387C16.903 28.1749 16.7472 27.9628 16.5915 27.7484C16.2801 27.4573 16.1221 27.2068 16.1221 26.9585C16.1244 27.209 16.2801 27.4573 16.5915 27.7484ZM35.3269 19.6783C35.4759 19.6512 35.6271 19.6241 35.776 19.597C36.9811 19.5429 38.0802 19.7618 38.8745 20.7796C39.2492 21.7229 39.7005 22.6278 40.2669 23.4741C40.5039 24.2053 40.8763 24.9094 40.707 25.7196C40.5468 25.9452 40.5716 26.3695 40.1518 26.3176C39.8427 26.2815 39.7772 25.9701 39.687 25.7331C39.2424 24.5709 38.6285 23.4944 37.9583 22.4563C37.1391 21.1858 35.9475 21.2512 35.2818 22.5872C34.7966 23.5599 34.4581 24.5935 34.1151 25.627C33.9255 26.2003 33.5735 27.1029 32.9732 26.9179C32.2939 26.708 31.7365 25.9452 31.926 25.0132C32.3323 23.0183 33.1086 21.2242 34.7424 19.9062C34.9388 19.8295 35.1329 19.755 35.3269 19.6783ZM43.4241 33.9341C43.4083 34.0605 43.3519 34.162 43.2391 34.2184C43.3519 34.1598 43.4061 34.0605 43.4241 33.9341ZM33.0454 19.4233C33.0476 19.4233 33.0522 19.4233 33.0544 19.4233C33.0522 19.4233 33.0499 19.4233 33.0454 19.4233ZM30.4524 30.7115C30.2944 31.208 30.3035 32.0159 29.7393 32.0768C29.3331 32.1197 28.8749 31.5013 28.8614 30.9281C28.8456 30.3188 29.306 30.2263 29.8386 30.2443C30.0981 30.2962 30.6239 30.1721 30.4524 30.7115ZM24.9934 16.6249C25.1468 16.6881 25.2867 16.7716 25.3928 16.9048C25.2867 16.7739 25.1468 16.6904 24.9934 16.6249ZM16.5013 30.0254V30.0277C16.5013 30.0277 16.5013 30.0277 16.5013 30.0254ZM16.5216 29.6869C16.5374 29.5831 16.5622 29.4815 16.5938 29.3777C16.5622 29.4815 16.5374 29.5854 16.5216 29.6869ZM27.6676 45.2945C27.2569 45.6917 26.9274 45.5585 26.625 45.3487C26.564 45.3058 26.5054 45.2606 26.4467 45.2178C26.5054 45.2629 26.564 45.308 26.625 45.3487C26.9274 45.5563 27.2569 45.6917 27.6676 45.2945C26.3587 44.0352 25.535 42.3901 24.2892 41.0789C23.8063 40.5712 23.373 40.0137 22.9172 39.4789C21.8023 37.8382 20.3806 36.4278 19.3651 34.7149C19.338 34.3471 19.3109 33.9792 19.2816 33.6091C20.3174 33.0156 21.3758 33.4873 22.3597 33.6836C26.8822 34.5885 31.3844 35.6086 35.8889 36.5993C36.2342 36.676 36.7171 36.7415 36.5681 37.2853C36.435 37.766 36.0401 37.8337 35.5729 37.7751C32.4835 37.3779 29.4233 36.8047 26.3632 36.2337C25.3409 36.0441 24.3186 35.8568 23.0503 35.6221C24.8015 37.7796 26.4061 39.7542 28.0106 41.7311C28.6267 42.4894 29.2721 43.2251 29.8498 44.0104C30.326 44.6581 30.6307 44.7755 31.0956 43.9675C32.0321 42.3404 33.0386 40.7539 34.0564 39.1742C34.6951 38.1813 35.512 38.1564 36.1642 39.0433C35.4714 41.1376 34.097 42.8775 33.1469 44.8386C33.2553 44.868 33.3636 44.8996 33.4697 44.9289C33.3613 44.8996 33.253 44.868 33.1447 44.8386C32.7791 45.387 32.3887 45.9241 32.0502 46.4906C31.6146 47.2218 31.0233 47.6212 30.1522 47.5422C29.7167 47.2533 29.2789 46.9667 28.8433 46.6779C28.4507 46.2152 28.0603 45.7549 27.6676 45.2945ZM27.4916 46.8268C27.381 46.8291 27.2704 46.8313 27.1598 46.8404C27.2704 46.8336 27.381 46.8291 27.4916 46.8268ZM34.5912 45.1117C34.5867 45.1117 34.5845 45.1117 34.58 45.1117C34.5822 45.1117 34.5867 45.1117 34.5912 45.1117ZM24.375 16.4128C24.0907 16.3022 23.8244 16.133 23.6596 15.7629C23.6574 15.7606 23.6528 15.7606 23.6506 15.7606C23.6528 15.7628 23.6551 15.7629 23.6596 15.7629C23.6754 15.7696 23.6957 15.7741 23.7138 15.7764C23.7725 15.7832 23.8041 15.7786 23.8176 15.7674C23.9349 15.7922 23.9914 15.7877 24.041 15.8035C23.9711 15.7832 23.8921 15.7967 23.8176 15.7967C23.8988 16.1488 24.1177 16.3067 24.375 16.4128Z" fill="#274CFF"/>
<path d="M29.8384 30.2447C30.0979 30.2989 30.6237 30.1725 30.4522 30.7118C30.2943 31.2083 30.3055 32.0162 29.7391 32.0772C29.3329 32.1201 28.8748 31.5017 28.8612 30.9285C28.8454 30.3192 29.3058 30.2267 29.8384 30.2447Z" fill="#F8F9FE"/>
</svg>
