<svg width="63" height="56" viewBox="0 0 63 56" fill="none" xmlns="http://www.w3.org/2000/svg">
<path d="M31.7308 55.6794H2.01189C0.984719 55.6794 0.343015 54.5364 0.862171 53.6273L15.7127 27.5358L30.5811 1.41313C31.0958 0.510729 32.368 0.510729 32.8827 1.41313L47.7511 27.5358L62.6017 53.6273C63.1186 54.5364 62.4791 55.6794 61.4519 55.6794H31.7308Z" fill="#274CFF"/>
<path d="M9.89965 53.9861C9.68352 53.9593 9.46739 53.9304 9.25126 53.9036C9.26017 53.8346 9.24235 53.7744 9.19556 53.7209C8.819 53.1594 8.33327 52.6559 8.24414 51.9407C8.2887 51.3391 8.51597 50.7954 8.77221 50.2562C12.3662 42.6894 15.9646 35.1249 19.543 27.5515C21.0292 24.4053 22.473 21.2391 23.9347 18.0819C25.2159 15.3413 26.497 12.6006 27.776 9.86226C27.981 9.48348 28.186 9.10247 28.391 8.72368C28.8566 8.36718 29.3023 7.9728 29.9507 8.02405C30.735 8.09758 31.2831 8.51869 31.7087 9.15817C32.0674 9.69738 32.4685 10.2099 32.8495 10.7335C32.9809 11.0877 33.1659 11.4041 33.4533 11.6559C33.5291 11.9255 33.6583 12.1617 33.9056 12.3154C36.41 16.1545 38.8966 20.0047 41.4211 23.8305C43.6582 27.2239 45.9353 30.5906 48.1947 33.9685C48.8987 35.116 49.5494 36.3014 50.3248 37.3998C50.9264 38.2532 51.3185 39.2737 52.1986 39.9243C52.6933 41.3213 53.7516 42.3753 54.4624 43.6386C54.8612 44.3494 55.5475 44.9621 55.3314 45.9135C54.7699 46.8182 53.9499 47.3262 52.9027 47.4821C46.3965 48.4447 39.8904 49.3939 33.3865 50.3698C29.1173 51.0115 24.8549 51.6911 20.5903 52.3529C17.9945 52.7294 15.3987 53.106 12.8029 53.4848C11.7869 53.3845 10.9045 54.0351 9.89965 53.9861ZM36.6462 46.7959C36.7197 46.7959 36.7955 46.8048 36.869 46.7937C41.5949 46.1208 46.3208 45.4456 51.0489 44.7772C51.8288 44.6658 51.8154 44.3672 51.4121 43.7701C47.5463 38.0148 43.7005 32.2461 39.8681 26.4686C39.4314 25.8113 39.2375 25.8492 38.8521 26.5176C37.0807 29.6036 35.267 32.665 33.4644 35.7332C32.4818 37.4043 32.0674 37.4578 30.5679 36.21C27.7203 33.8393 24.846 31.4997 22.0096 29.1134C21.4459 28.641 21.2164 28.6611 20.92 29.3562C19.8282 31.9119 18.7008 34.452 17.5444 36.9787C17.1923 37.7496 17.3104 38.251 18.0992 38.5741C18.4423 38.7144 18.7788 38.8726 19.1286 38.9952C24.5363 40.8846 29.5674 43.5918 34.6609 46.1631C35.2937 46.4817 35.9132 46.8137 36.6462 46.7959ZM38.2193 24.4209C38.2327 24.0711 38.0901 23.777 37.9007 23.494C35.2625 19.5524 32.6311 15.6064 29.993 11.6671C29.817 11.4041 29.7033 10.963 29.3312 11.0098C28.9636 11.0565 28.9569 11.5222 28.8255 11.8097C26.8335 16.1924 24.8705 20.5885 22.863 24.9646C22.5287 25.6932 22.6134 26.1299 23.2596 26.6424C25.9868 28.8059 28.6918 31.0006 31.3544 33.2421C32.0941 33.866 32.4328 33.6655 32.8873 32.9614C34.5139 30.4391 36.1828 27.9458 37.8405 25.4436C38.0477 25.1295 38.2171 24.8086 38.2193 24.4209ZM33.1904 47.3017C32.845 47.0454 32.7425 46.9385 32.6155 46.8806C28.5336 45.0312 24.4561 43.1729 20.1825 41.7937C19.015 41.4172 17.8118 41.2189 16.5796 41.2077C16.0716 41.2033 15.5814 41.2902 15.3564 41.8004C14.1108 44.5989 12.8831 47.4064 11.5462 50.45C18.8456 49.3872 25.8999 48.3623 33.1904 47.3017Z" fill="#FAFBFE"/>
<path d="M34.6323 36.5423C34.6613 35.6911 35.078 35.2544 35.8132 35.2945C36.6176 35.3369 37.081 35.8426 37.1011 36.6715C37.1189 37.3199 36.2923 38.4028 35.8355 38.2713C34.9621 38.0195 34.8195 37.2063 34.6323 36.5423Z" fill="#F8F9FE"/>
<path d="M26.7981 36.7719C26.7914 36.3397 26.7602 35.952 27.2883 35.8985C27.7985 35.8472 28.3177 35.718 28.6251 36.3307C29.0641 37.2064 28.6185 37.886 28.1595 38.5611C27.9277 38.9042 27.7272 38.6592 27.5467 38.4764C27.0654 37.9907 26.7335 37.4359 26.7981 36.7719Z" fill="#F8F9FE"/>
<path d="M33.0744 40.5148C33.0833 41.0028 32.7625 41.4529 32.3436 41.4507C31.7576 41.4462 31.3454 40.8557 31.234 40.3656C31.1248 39.8798 31.713 39.6503 32.1408 39.6035C32.7246 39.5389 32.9987 39.9378 33.0744 40.5148Z" fill="#F8F9FE"/>
</svg>
